solid servo3
facet normal -0.9999999999999999 0.0 0.0
  outer loop
    vertex 6.672043545462057 31.65162058751805 23.98914644995561
    vertex 6.672043545462057 8.562067129435782 1.9990955374962989
    vertex 6.672043545462057 8.562067129435782 23.98914644995561
  endloop
endfacet
facet normal -0.9999999999999999 0.0 0.0
  outer loop
    vertex 6.672043545462057 8.562067129435782 1.9990955374962989
    vertex 6.672043545462057 31.65162058751805 23.98914644995561
    vertex 6.672043545462057 31.65162058751805 1.9990955374962989
  endloop
endfacet
facet normal 0.9999999999999999 4.735801067886677e-17 -4.4158340000125655e-16
  outer loop
    vertex 18.766571547314676 31.65162058751805 1.9990955374962989
    vertex 18.766571547314676 8.562067129435782 23.98914644995561
    vertex 18.766571547314676 8.562067129435782 1.9990955374962989
  endloop
endfacet
facet normal 0.9999999999999999 4.735801067886677e-17 -4.4158340000125655e-16
  outer loop
    vertex 18.766571547314676 8.562067129435782 23.98914644995561
    vertex 18.766571547314676 31.65162058751805 1.9990955374962989
    vertex 18.766571547314676 12.17274866388086 23.98914644995561
  endloop
endfacet
facet normal 0.9999999999999999 4.735801067886677e-17 -4.4158340000125655e-16
  outer loop
    vertex 18.766571547314676 12.17274866388086 23.98914644995561
    vertex 18.766571547314676 31.65162058751805 1.9990955374962989
    vertex 18.76657154731468 12.172748663880862 27.987337524948185
  endloop
endfacet
facet normal 0.9999999999999999 4.735801067886677e-17 -4.4158340000125655e-16
  outer loop
    vertex 18.76657154731468 12.172748663880862 27.987337524948185
    vertex 18.766571547314676 31.65162058751805 1.9990955374962989
    vertex 18.766571547314676 17.351620587518045 23.989146449955612
  endloop
endfacet
facet normal 0.9999999999999999 4.735801067886677e-17 -4.4158340000125655e-16
  outer loop
    vertex 18.76657154731468 12.172748663880862 27.987337524948185
    vertex 18.766571547314676 17.351620587518045 23.989146449955612
    vertex 18.766571547314694 12.172748663880862 32.1854381536904
  endloop
endfacet
facet normal 0.9999999999999999 4.735801067886677e-17 -4.4158340000125655e-16
  outer loop
    vertex 18.766571547314676 17.351620587518045 23.989146449955612
    vertex 18.766571547314676 31.65162058751805 1.9990955374962989
    vertex 18.766571547314676 31.65162058751805 23.98914644995561
  endloop
endfacet
facet normal 0.9999999999999999 4.735801067886677e-17 -4.4158340000125655e-16
  outer loop
    vertex 18.766571547314676 17.351620587518045 23.989146449955612
    vertex 18.766571547314694 17.351620587518045 32.1854381536904
    vertex 18.766571547314694 12.172748663880862 32.1854381536904
  endloop
endfacet
facet normal 0.9999999999999999 4.735801067886677e-17 -4.4158340000125655e-16
  outer loop
    vertex 18.766571547314694 17.351620587518045 32.1854381536904
    vertex 18.766571547314676 17.351620587518045 23.989146449955612
    vertex 18.76657154731468 17.351620587518045 27.987337524948195
  endloop
endfacet
facet normal 0.0 0.0 -0.9999999999999999
  outer loop
    vertex 18.766571547314676 31.65162058751805 1.9990955374962989
    vertex 6.672043545462057 8.562067129435782 1.9990955374962989
    vertex 6.672043545462057 31.65162058751805 1.9990955374962989
  endloop
endfacet
facet normal 0.0 0.0 -0.9999999999999999
  outer loop
    vertex 6.672043545462057 8.562067129435782 1.9990955374962989
    vertex 18.766571547314676 31.65162058751805 1.9990955374962989
    vertex 18.766571547314676 8.562067129435782 1.9990955374962989
  endloop
endfacet
facet normal 0.0 -0.9999999999999999 0.0
  outer loop
    vertex 18.766571547314676 8.562067129435782 23.98914644995561
    vertex 6.672043545462057 8.562067129435782 1.9990955374962989
    vertex 18.766571547314676 8.562067129435782 1.9990955374962989
  endloop
endfacet
facet normal 0.0 -0.9999999999999999 0.0
  outer loop
    vertex 6.672043545462057 8.562067129435782 1.9990955374962989
    vertex 18.766571547314676 8.562067129435782 23.98914644995561
    vertex 6.672043545462057 8.562067129435782 23.98914644995561
  endloop
endfacet
facet normal 0.0 0.9999999999999999 0.0
  outer loop
    vertex 6.672043545462057 31.65162058751805 23.98914644995561
    vertex 18.766571547314676 31.65162058751805 1.9990955374962989
    vertex 6.672043545462057 31.65162058751805 1.9990955374962989
  endloop
endfacet
facet normal 0.0 0.9999999999999999 0.0
  outer loop
    vertex 18.766571547314676 31.65162058751805 1.9990955374962989
    vertex 6.672043545462057 31.65162058751805 23.98914644995561
    vertex 18.766571547314676 31.65162058751805 23.98914644995561
  endloop
endfacet
facet normal 0.6087614290087208 0.793353340291235 -4.808748459500689e-16
  outer loop
    vertex 14.648675265487356 18.053173907130304 32.1854381536904
    vertex 15.29686077681989 17.555803671067906 27.9873375249482
    vertex 14.648675265487356 18.053173907130304 27.9873375249482
  endloop
endfacet
facet normal 0.6087614290087208 0.793353340291235 -4.808748459500689e-16
  outer loop
    vertex 15.29686077681989 17.555803671067906 27.9873375249482
    vertex 14.648675265487356 18.053173907130304 32.1854381536904
    vertex 15.29686077681989 17.555803671067906 32.1854381536904
  endloop
endfacet
facet normal 0.382683432365092 0.9238795325112857 -6.130243316223343e-16
  outer loop
    vertex 13.744655695491138 18.427631073673435 32.1854381536904
    vertex 14.648675265487356 18.053173907130304 27.9873375249482
    vertex 13.744655695491138 18.427631073673435 27.9873375249482
  endloop
endfacet
facet normal 0.382683432365092 0.9238795325112857 -6.130243316223343e-16
  outer loop
    vertex 14.648675265487356 18.053173907130304 27.9873375249482
    vertex 13.744655695491138 18.427631073673435 32.1854381536904
    vertex 14.648675265487356 18.053173907130304 32.1854381536904
  endloop
endfacet
facet normal 0.1305261922200469 0.9914448613738109 -7.033972221651487e-16
  outer loop
    vertex 12.77452319908457 18.55535143981605 32.1854381536904
    vertex 13.744655695491138 18.427631073673435 27.9873375249482
    vertex 12.77452319908457 18.55535143981605 27.9873375249482
  endloop
endfacet
facet normal 0.1305261922200469 0.9914448613738109 -7.033972221651487e-16
  outer loop
    vertex 13.744655695491138 18.427631073673435 27.9873375249482
    vertex 12.77452319908457 18.55535143981605 32.1854381536904
    vertex 13.744655695491138 18.427631073673435 32.1854381536904
  endloop
endfacet
facet normal -0.13052619222004722 0.9914448613738109 -7.458347544362751e-16
  outer loop
    vertex 11.804390702678003 18.427631073673435 32.1854381536904
    vertex 12.77452319908457 18.55535143981605 27.9873375249482
    vertex 11.804390702678003 18.427631073673435 27.9873375249482
  endloop
endfacet
facet normal -0.13052619222004722 0.9914448613738109 -7.458347544362751e-16
  outer loop
    vertex 12.77452319908457 18.55535143981605 27.9873375249482
    vertex 11.804390702678003 18.427631073673435 32.1854381536904
    vertex 12.77452319908457 18.55535143981605 32.1854381536904
  endloop
endfacet
facet normal -0.3826834323650881 0.9238795325112873 -7.3744488074278e-16
  outer loop
    vertex 10.900371132681789 18.053173907130308 32.1854381536904
    vertex 11.804390702678003 18.427631073673435 27.9873375249482
    vertex 10.900371132681789 18.053173907130308 27.9873375249482
  endloop
endfacet
facet normal -0.3826834323650881 0.9238795325112873 -7.3744488074278e-16
  outer loop
    vertex 11.804390702678003 18.427631073673435 27.9873375249482
    vertex 10.900371132681789 18.053173907130308 32.1854381536904
    vertex 11.804390702678003 18.427631073673435 32.1854381536904
  endloop
endfacet
facet normal -0.6087614290087215 0.7933533402912345 -6.787993571119504e-16
  outer loop
    vertex 10.124071928828194 17.457498577266865 32.1854381536904
    vertex 10.900371132681789 18.053173907130308 27.9873375249482
    vertex 10.124071928828194 17.457498577266865 27.9873375249482
  endloop
endfacet
facet normal -0.6087614290087215 0.7933533402912345 -6.787993571119504e-16
  outer loop
    vertex 10.900371132681789 18.053173907130308 27.9873375249482
    vertex 10.124071928828194 17.457498577266865 32.1854381536904
    vertex 10.900371132681789 18.053173907130308 32.1854381536904
  endloop
endfacet
facet normal -0.7933533402912364 0.608761429008719 -5.738947790629176e-16
  outer loop
    vertex 10.124071928828194 17.457498577266865 32.1854381536904
    vertex 9.528396598964752 16.68119937341327 27.9873375249482
    vertex 9.528396598964752 16.68119937341327 32.1854381536904
  endloop
endfacet
facet normal -0.7933533402912364 0.608761429008719 -5.738947790629176e-16
  outer loop
    vertex 9.528396598964752 16.68119937341327 27.9873375249482
    vertex 10.124071928828194 17.457498577266865 32.1854381536904
    vertex 10.124071928828194 17.457498577266865 27.9873375249482
  endloop
endfacet
facet normal -0.923879532511286 0.3826834323650917 -4.2988022022671473e-16
  outer loop
    vertex 9.528396598964752 16.68119937341327 32.1854381536904
    vertex 9.153939432421627 15.777179803417061 27.9873375249482
    vertex 9.153939432421627 15.777179803417061 32.1854381536904
  endloop
endfacet
facet normal -0.923879532511286 0.3826834323650917 -4.2988022022671473e-16
  outer loop
    vertex 9.153939432421627 15.777179803417061 27.9873375249482
    vertex 9.528396598964752 16.68119937341327 32.1854381536904
    vertex 9.528396598964752 16.68119937341327 27.9873375249482
  endloop
endfacet
facet normal -0.9914448613738104 0.13052619222005143 -2.5657003479271076e-16
  outer loop
    vertex 9.153939432421627 15.777179803417061 32.1854381536904
    vertex 9.026219066279006 14.807047307010489 27.987337524948195
    vertex 9.026219066279006 14.807047307010489 32.1854381536904
  endloop
endfacet
facet normal -0.9914448613738104 0.13052619222005143 -2.5657003479271076e-16
  outer loop
    vertex 9.026219066279006 14.807047307010489 27.987337524948195
    vertex 9.153939432421627 15.777179803417061 32.1854381536904
    vertex 9.153939432421627 15.777179803417061 27.9873375249482
  endloop
endfacet
facet normal -0.9914448613738104 -0.13052619222005143 -6.577502548961525e-17
  outer loop
    vertex 9.026219066279006 14.807047307010489 32.1854381536904
    vertex 9.153939432421627 13.836914810603922 27.9873375249482
    vertex 9.153939432421627 13.836914810603922 32.1854381536904
  endloop
endfacet
facet normal -0.9914448613738104 -0.13052619222005143 -6.577502548961525e-17
  outer loop
    vertex 9.153939432421627 13.836914810603922 27.9873375249482
    vertex 9.026219066279006 14.807047307010489 32.1854381536904
    vertex 9.026219066279006 14.807047307010489 27.987337524948195
  endloop
endfacet
facet normal -0.9238795325112873 -0.3826834323650881 1.295024431022275e-16
  outer loop
    vertex 9.153939432421627 13.836914810603922 32.1854381536904
    vertex 9.52839659896475 12.932895240607708 27.9873375249482
    vertex 9.52839659896475 12.932895240607708 32.1854381536904
  endloop
endfacet
facet normal -0.9238795325112873 -0.3826834323650881 1.295024431022275e-16
  outer loop
    vertex 9.52839659896475 12.932895240607708 27.9873375249482
    vertex 9.153939432421627 13.836914810603922 32.1854381536904
    vertex 9.153939432421627 13.836914810603922 27.9873375249482
  endloop
endfacet
facet normal -0.7933533402912355 -0.6087614290087204 3.159545342095618e-16
  outer loop
    vertex 9.52839659896475 12.932895240607708 32.1854381536904
    vertex 10.124071928828194 12.156596036754111 27.9873375249482
    vertex 10.124071928828194 12.156596036754111 32.1854381536904
  endloop
endfacet
facet normal -0.7933533402912355 -0.6087614290087204 3.159545342095618e-16
  outer loop
    vertex 10.124071928828194 12.156596036754111 27.9873375249482
    vertex 9.52839659896475 12.932895240607708 32.1854381536904
    vertex 9.52839659896475 12.932895240607708 27.9873375249482
  endloop
endfacet
facet normal -0.6087614290087197 -0.7933533402912358 4.808748459500697e-16
  outer loop
    vertex 10.900371132681785 11.560920706890672 32.1854381536904
    vertex 10.124071928828194 12.156596036754111 27.9873375249482
    vertex 10.900371132681785 11.560920706890672 27.9873375249482
  endloop
endfacet
facet normal -0.6087614290087197 -0.7933533402912358 4.808748459500697e-16
  outer loop
    vertex 10.124071928828194 12.156596036754111 27.9873375249482
    vertex 10.900371132681785 11.560920706890672 32.1854381536904
    vertex 10.124071928828194 12.156596036754111 32.1854381536904
  endloop
endfacet
facet normal -0.3826834323650898 -0.9238795325112867 6.130243316223356e-16
  outer loop
    vertex 11.804390702677997 11.186463540347548 32.1854381536904
    vertex 10.900371132681785 11.560920706890672 27.9873375249482
    vertex 11.804390702677997 11.186463540347548 27.9873375249482
  endloop
endfacet
facet normal -0.3826834323650898 -0.9238795325112867 6.130243316223356e-16
  outer loop
    vertex 10.900371132681785 11.560920706890672 27.9873375249482
    vertex 11.804390702677997 11.186463540347548 32.1854381536904
    vertex 10.900371132681785 11.560920706890672 32.1854381536904
  endloop
endfacet
facet normal -0.13052619222005538 -0.9914448613738099 7.033972221651466e-16
  outer loop
    vertex 12.77452319908457 11.058743174204922 32.1854381536904
    vertex 11.804390702677997 11.186463540347548 27.9873375249482
    vertex 12.77452319908457 11.058743174204922 27.9873375249482
  endloop
endfacet
facet normal -0.13052619222005538 -0.9914448613738099 7.033972221651466e-16
  outer loop
    vertex 11.804390702677997 11.186463540347548 27.9873375249482
    vertex 12.77452319908457 11.058743174204922 32.1854381536904
    vertex 11.804390702677997 11.186463540347548 32.1854381536904
  endloop
endfacet
facet normal 0.13052619222005593 -0.9914448613738097 7.458347544362757e-16
  outer loop
    vertex 13.744655695491138 11.186463540347548 32.1854381536904
    vertex 12.77452319908457 11.058743174204922 27.9873375249482
    vertex 13.744655695491138 11.186463540347548 27.9873375249482
  endloop
endfacet
facet normal 0.13052619222005593 -0.9914448613738097 7.458347544362757e-16
  outer loop
    vertex 12.77452319908457 11.058743174204922 27.9873375249482
    vertex 13.744655695491138 11.186463540347548 32.1854381536904
    vertex 12.77452319908457 11.058743174204922 32.1854381536904
  endloop
endfacet
facet normal 0.38268343236508895 -0.9238795325112871 7.3744488074278e-16
  outer loop
    vertex 14.64867526548735 11.560920706890672 32.1854381536904
    vertex 13.744655695491138 11.186463540347548 27.9873375249482
    vertex 14.64867526548735 11.560920706890672 27.9873375249482
  endloop
endfacet
facet normal 0.38268343236508895 -0.9238795325112871 7.3744488074278e-16
  outer loop
    vertex 13.744655695491138 11.186463540347548 27.9873375249482
    vertex 14.64867526548735 11.560920706890672 32.1854381536904
    vertex 13.744655695491138 11.186463540347548 32.1854381536904
  endloop
endfacet
facet normal 0.6087614290087193 -0.7933533402912362 6.787993571119512e-16
  outer loop
    vertex 15.29686077681989 12.058290942953072 32.1854381536904
    vertex 14.64867526548735 11.560920706890672 27.9873375249482
    vertex 15.29686077681989 12.058290942953072 27.9873375249482
  endloop
endfacet
facet normal 0.6087614290087193 -0.7933533402912362 6.787993571119512e-16
  outer loop
    vertex 14.64867526548735 11.560920706890672 27.9873375249482
    vertex 15.29686077681989 12.058290942953072 32.1854381536904
    vertex 14.64867526548735 11.560920706890672 32.1854381536904
  endloop
endfacet
facet normal -0.1305261922200518 -0.9914448613738104 -0.0
  outer loop
    vertex 12.769284934825771 9.26175056755949 27.9873375249482
    vertex 11.372294140000312 9.445667894804862 23.98914644995562
    vertex 12.769284934825771 9.26175056755949 23.98914644995562
  endloop
endfacet
facet normal -0.1305261922200518 -0.9914448613738104 -0.0
  outer loop
    vertex 11.372294140000312 9.445667894804862 23.98914644995562
    vertex 12.769284934825771 9.26175056755949 27.9873375249482
    vertex 11.372294140000312 9.445667894804862 27.9873375249482
  endloop
endfacet
facet normal 0.13052619222005157 -0.9914448613738104 0.0
  outer loop
    vertex 14.16627572965123 9.445667894804862 27.9873375249482
    vertex 12.769284934825771 9.26175056755949 23.98914644995562
    vertex 14.16627572965123 9.445667894804862 23.98914644995562
  endloop
endfacet
facet normal 0.13052619222005157 -0.9914448613738104 0.0
  outer loop
    vertex 12.769284934825771 9.26175056755949 23.98914644995562
    vertex 14.16627572965123 9.445667894804862 27.9873375249482
    vertex 12.769284934825771 9.26175056755949 27.9873375249482
  endloop
endfacet
facet normal 0.38268343236509 -0.9238795325112866 0.0
  outer loop
    vertex 15.468063910445775 9.984886214626961 27.9873375249482
    vertex 14.16627572965123 9.445667894804862 23.98914644995562
    vertex 15.468063910445775 9.984886214626961 23.98914644995562
  endloop
endfacet
facet normal 0.38268343236509 -0.9238795325112866 0.0
  outer loop
    vertex 14.16627572965123 9.445667894804862 23.98914644995562
    vertex 15.468063910445775 9.984886214626961 27.9873375249482
    vertex 14.16627572965123 9.445667894804862 27.9873375249482
  endloop
endfacet
facet normal 0.6087614290087208 -0.793353340291235 0.0
  outer loop
    vertex 16.585934763994953 10.84265868963032 27.9873375249482
    vertex 15.468063910445775 9.984886214626961 23.98914644995562
    vertex 16.585934763994953 10.84265868963032 23.98914644995562
  endloop
endfacet
facet normal 0.6087614290087208 -0.793353340291235 0.0
  outer loop
    vertex 15.468063910445775 9.984886214626961 23.98914644995562
    vertex 16.585934763994953 10.84265868963032 27.9873375249482
    vertex 15.468063910445775 9.984886214626961 27.9873375249482
  endloop
endfacet
facet normal 0.793353340291235 -0.6087614290087207 0.0
  outer loop
    vertex 17.443707238998307 11.960529543179494 23.98914644995562
    vertex 16.585934763994953 10.84265868963032 27.9873375249482
    vertex 16.585934763994953 10.84265868963032 23.98914644995562
  endloop
endfacet
facet normal 0.793353340291235 -0.6087614290087207 0.0
  outer loop
    vertex 16.585934763994953 10.84265868963032 27.9873375249482
    vertex 17.443707238998307 11.960529543179494 23.98914644995562
    vertex 17.443707238998307 11.960529543179494 27.9873375249482
  endloop
endfacet
facet normal 0.7933533402912355 0.6087614290087204 7.0328487435052e-18
  outer loop
    vertex 16.58593476399495 18.47595834796868 23.98914644995562
    vertex 17.37198135551268 17.451562485667424 27.9873375249482
    vertex 17.37198135551268 17.451562485667424 23.98914644995562
  endloop
endfacet
facet normal 0.7933533402912355 0.6087614290087204 7.0328487435052e-18
  outer loop
    vertex 17.37198135551268 17.451562485667424 27.9873375249482
    vertex 16.58593476399495 18.47595834796868 23.98914644995562
    vertex 16.58593476399495 18.47595834796868 27.9873375249482
  endloop
endfacet
facet normal 0.6087614290087201 0.7933533402912356 0.0
  outer loop
    vertex 15.46806391044577 19.33373082297204 27.9873375249482
    vertex 16.58593476399495 18.47595834796868 23.98914644995562
    vertex 15.46806391044577 19.33373082297204 23.98914644995562
  endloop
endfacet
facet normal 0.6087614290087201 0.7933533402912356 0.0
  outer loop
    vertex 16.58593476399495 18.47595834796868 23.98914644995562
    vertex 15.46806391044577 19.33373082297204 27.9873375249482
    vertex 16.58593476399495 18.47595834796868 27.9873375249482
  endloop
endfacet
facet normal 0.3826834323650893 0.923879532511287 0.0
  outer loop
    vertex 14.166275729651225 19.872949142794134 27.9873375249482
    vertex 15.46806391044577 19.33373082297204 23.98914644995562
    vertex 14.166275729651225 19.872949142794134 23.98914644995562
  endloop
endfacet
facet normal 0.3826834323650893 0.923879532511287 0.0
  outer loop
    vertex 15.46806391044577 19.33373082297204 23.98914644995562
    vertex 14.166275729651225 19.872949142794134 27.9873375249482
    vertex 15.46806391044577 19.33373082297204 27.9873375249482
  endloop
endfacet
facet normal 0.1305261922200512 0.9914448613738104 0.0
  outer loop
    vertex 12.769284934825771 20.05686647003951 27.9873375249482
    vertex 14.166275729651225 19.872949142794134 23.98914644995562
    vertex 12.769284934825771 20.05686647003951 23.98914644995562
  endloop
endfacet
facet normal 0.1305261922200512 0.9914448613738104 0.0
  outer loop
    vertex 14.166275729651225 19.872949142794134 23.98914644995562
    vertex 12.769284934825771 20.05686647003951 27.9873375249482
    vertex 14.166275729651225 19.872949142794134 27.9873375249482
  endloop
endfacet
facet normal -0.13052619222005216 0.9914448613738103 0.0
  outer loop
    vertex 11.372294140000308 19.872949142794134 27.9873375249482
    vertex 12.769284934825771 20.05686647003951 23.98914644995562
    vertex 11.372294140000308 19.872949142794134 23.98914644995562
  endloop
endfacet
facet normal -0.13052619222005216 0.9914448613738103 0.0
  outer loop
    vertex 12.769284934825771 20.05686647003951 23.98914644995562
    vertex 11.372294140000308 19.872949142794134 27.9873375249482
    vertex 12.769284934825771 20.05686647003951 27.9873375249482
  endloop
endfacet
facet normal -0.38268343236509067 0.9238795325112864 0.0
  outer loop
    vertex 10.070505959205763 19.333730822972036 27.9873375249482
    vertex 11.372294140000308 19.872949142794134 23.98914644995562
    vertex 10.070505959205763 19.333730822972036 23.98914644995562
  endloop
endfacet
facet normal -0.38268343236509067 0.9238795325112864 0.0
  outer loop
    vertex 11.372294140000308 19.872949142794134 23.98914644995562
    vertex 10.070505959205763 19.333730822972036 27.9873375249482
    vertex 11.372294140000308 19.872949142794134 27.9873375249482
  endloop
endfacet
facet normal -0.6087614290087213 0.7933533402912346 0.0
  outer loop
    vertex 8.952635105656588 18.475958347968675 27.9873375249482
    vertex 10.070505959205763 19.333730822972036 23.98914644995562
    vertex 8.952635105656588 18.475958347968675 23.98914644995562
  endloop
endfacet
facet normal -0.6087614290087213 0.7933533402912346 0.0
  outer loop
    vertex 10.070505959205763 19.333730822972036 23.98914644995562
    vertex 8.952635105656588 18.475958347968675 27.9873375249482
    vertex 10.070505959205763 19.333730822972036 27.9873375249482
  endloop
endfacet
facet normal -0.793353340291235 0.608761429008721 0.0
  outer loop
    vertex 8.952635105656588 18.475958347968675 27.9873375249482
    vertex 8.094862630653234 17.358087494419504 23.98914644995562
    vertex 8.094862630653234 17.358087494419504 27.9873375249482
  endloop
endfacet
facet normal -0.793353340291235 0.608761429008721 0.0
  outer loop
    vertex 8.094862630653234 17.358087494419504 23.98914644995562
    vertex 8.952635105656588 18.475958347968675 27.9873375249482
    vertex 8.952635105656588 18.475958347968675 23.98914644995562
  endloop
endfacet
facet normal -0.9238795325112867 0.38268343236508956 0.0
  outer loop
    vertex 8.094862630653234 17.358087494419504 27.9873375249482
    vertex 7.555644310831132 16.056299313624955 23.98914644995562
    vertex 7.555644310831132 16.056299313624955 27.9873375249482
  endloop
endfacet
facet normal -0.9238795325112867 0.38268343236508956 0.0
  outer loop
    vertex 7.555644310831132 16.056299313624955 23.98914644995562
    vertex 8.094862630653234 17.358087494419504 27.9873375249482
    vertex 8.094862630653234 17.358087494419504 23.98914644995562
  endloop
endfacet
facet normal -0.9914448613738104 0.1305261922200512 0.0
  outer loop
    vertex 7.555644310831132 16.056299313624955 27.9873375249482
    vertex 7.37172698358576 14.659308518799499 23.98914644995562
    vertex 7.37172698358576 14.659308518799499 27.9873375249482
  endloop
endfacet
facet normal -0.9914448613738104 0.1305261922200512 0.0
  outer loop
    vertex 7.37172698358576 14.659308518799499 23.98914644995562
    vertex 7.555644310831132 16.056299313624955 27.9873375249482
    vertex 7.555644310831132 16.056299313624955 23.98914644995562
  endloop
endfacet
facet normal -0.9914448613738104 -0.13052619222005157 -0.0
  outer loop
    vertex 7.37172698358576 14.659308518799499 27.9873375249482
    vertex 7.555644310831133 13.262317723974038 23.98914644995562
    vertex 7.555644310831133 13.262317723974038 27.9873375249482
  endloop
endfacet
facet normal -0.9914448613738104 -0.13052619222005157 -0.0
  outer loop
    vertex 7.555644310831133 13.262317723974038 23.98914644995562
    vertex 7.37172698358576 14.659308518799499 27.9873375249482
    vertex 7.37172698358576 14.659308518799499 23.98914644995562
  endloop
endfacet
facet normal -0.9238795325112866 -0.38268343236509017 -0.0
  outer loop
    vertex 7.555644310831133 13.262317723974038 27.9873375249482
    vertex 8.094862630653235 11.960529543179492 23.98914644995562
    vertex 8.094862630653235 11.960529543179492 27.9873375249482
  endloop
endfacet
facet normal -0.9238795325112866 -0.38268343236509017 -0.0
  outer loop
    vertex 8.094862630653235 11.960529543179492 23.98914644995562
    vertex 7.555644310831133 13.262317723974038 27.9873375249482
    vertex 7.555644310831133 13.262317723974038 23.98914644995562
  endloop
endfacet
facet normal -0.7933533402912347 -0.608761429008721 -0.0
  outer loop
    vertex 8.094862630653235 11.960529543179492 27.9873375249482
    vertex 8.952635105656592 10.84265868963032 23.98914644995562
    vertex 8.952635105656592 10.84265868963032 27.9873375249482
  endloop
endfacet
facet normal -0.7933533402912347 -0.608761429008721 -0.0
  outer loop
    vertex 8.952635105656592 10.84265868963032 23.98914644995562
    vertex 8.094862630653235 11.960529543179492 27.9873375249482
    vertex 8.094862630653235 11.960529543179492 23.98914644995562
  endloop
endfacet
facet normal -0.6087614290087202 -0.7933533402912355 -0.0
  outer loop
    vertex 10.070505959205766 9.984886214626961 27.9873375249482
    vertex 8.952635105656592 10.84265868963032 23.98914644995562
    vertex 10.070505959205766 9.984886214626961 23.98914644995562
  endloop
endfacet
facet normal -0.6087614290087202 -0.7933533402912355 -0.0
  outer loop
    vertex 8.952635105656592 10.84265868963032 23.98914644995562
    vertex 10.070505959205766 9.984886214626961 27.9873375249482
    vertex 8.952635105656592 10.84265868963032 27.9873375249482
  endloop
endfacet
facet normal -0.3826834323650898 -0.9238795325112867 -0.0
  outer loop
    vertex 11.372294140000312 9.445667894804862 27.9873375249482
    vertex 10.070505959205766 9.984886214626961 23.98914644995562
    vertex 11.372294140000312 9.445667894804862 23.98914644995562
  endloop
endfacet
facet normal -0.3826834323650898 -0.9238795325112867 -0.0
  outer loop
    vertex 10.070505959205766 9.984886214626961 23.98914644995562
    vertex 11.372294140000312 9.445667894804862 27.9873375249482
    vertex 10.070505959205766 9.984886214626961 27.9873375249482
  endloop
endfacet
facet normal 0.9238795325112832 -0.3826834323650984 0.0
  outer loop
    vertex 17.490208652782183 12.072793887006046 23.98914644995562
    vertex 17.443707238998307 11.960529543179494 27.9873375249482
    vertex 17.443707238998307 11.960529543179494 23.98914644995562
  endloop
endfacet
facet normal 0.9238795325112832 -0.3826834323650984 0.0
  outer loop
    vertex 17.443707238998307 11.960529543179494 27.9873375249482
    vertex 17.490208652782183 12.072793887006046 23.98914644995562
    vertex 17.490208652782183 12.072793887006046 27.9873375249482
  endloop
endfacet
facet normal 1.6173372711471966e-16 1.5407821995621209e-16 0.9999999999999999
  outer loop
    vertex 6.672043545462057 8.562067129435782 23.98914644995561
    vertex 7.37172698358576 14.659308518799499 23.98914644995562
    vertex 6.672043545462057 31.65162058751805 23.98914644995561
  endloop
endfacet
facet normal 1.6173372711471966e-16 1.5407821995621209e-16 0.9999999999999999
  outer loop
    vertex 7.37172698358576 14.659308518799499 23.98914644995562
    vertex 6.672043545462057 8.562067129435782 23.98914644995561
    vertex 7.555644310831133 13.262317723974038 23.98914644995562
  endloop
endfacet
facet normal 1.6173372711471966e-16 1.5407821995621209e-16 0.9999999999999999
  outer loop
    vertex 7.555644310831133 13.262317723974038 23.98914644995562
    vertex 6.672043545462057 8.562067129435782 23.98914644995561
    vertex 8.094862630653235 11.960529543179492 23.98914644995562
  endloop
endfacet
facet normal 1.6173372711471966e-16 1.5407821995621209e-16 0.9999999999999999
  outer loop
    vertex 8.094862630653235 11.960529543179492 23.98914644995562
    vertex 6.672043545462057 8.562067129435782 23.98914644995561
    vertex 8.952635105656592 10.84265868963032 23.98914644995562
  endloop
endfacet
facet normal 1.6173372711471966e-16 1.5407821995621209e-16 0.9999999999999999
  outer loop
    vertex 8.952635105656592 10.84265868963032 23.98914644995562
    vertex 6.672043545462057 8.562067129435782 23.98914644995561
    vertex 10.070505959205766 9.984886214626961 23.98914644995562
  endloop
endfacet
facet normal 1.6173372711471966e-16 1.5407821995621209e-16 0.9999999999999999
  outer loop
    vertex 10.070505959205766 9.984886214626961 23.98914644995562
    vertex 6.672043545462057 8.562067129435782 23.98914644995561
    vertex 11.372294140000312 9.445667894804862 23.98914644995562
  endloop
endfacet
facet normal 1.6173372711471966e-16 1.5407821995621209e-16 0.9999999999999999
  outer loop
    vertex 11.372294140000312 9.445667894804862 23.98914644995562
    vertex 6.672043545462057 8.562067129435782 23.98914644995561
    vertex 12.769284934825771 9.26175056755949 23.98914644995562
  endloop
endfacet
facet normal 1.6173372711471966e-16 1.5407821995621209e-16 0.9999999999999999
  outer loop
    vertex 12.769284934825771 9.26175056755949 23.98914644995562
    vertex 6.672043545462057 8.562067129435782 23.98914644995561
    vertex 18.766571547314676 8.562067129435782 23.98914644995561
  endloop
endfacet
facet normal 1.6173372711471966e-16 1.5407821995621209e-16 0.9999999999999999
  outer loop
    vertex 12.769284934825771 9.26175056755949 23.98914644995562
    vertex 18.766571547314676 8.562067129435782 23.98914644995561
    vertex 14.16627572965123 9.445667894804862 23.98914644995562
  endloop
endfacet
facet normal 1.6173372711471966e-16 1.5407821995621209e-16 0.9999999999999999
  outer loop
    vertex 14.16627572965123 9.445667894804862 23.98914644995562
    vertex 18.766571547314676 8.562067129435782 23.98914644995561
    vertex 15.468063910445775 9.984886214626961 23.98914644995562
  endloop
endfacet
facet normal 1.6173372711471966e-16 1.5407821995621209e-16 0.9999999999999999
  outer loop
    vertex 15.468063910445775 9.984886214626961 23.98914644995562
    vertex 18.766571547314676 8.562067129435782 23.98914644995561
    vertex 16.585934763994953 10.84265868963032 23.98914644995562
  endloop
endfacet
facet normal 1.6173372711471966e-16 1.5407821995621209e-16 0.9999999999999999
  outer loop
    vertex 16.585934763994953 10.84265868963032 23.98914644995562
    vertex 18.766571547314676 8.562067129435782 23.98914644995561
    vertex 17.443707238998307 11.960529543179494 23.98914644995562
  endloop
endfacet
facet normal 1.6173372711471966e-16 1.5407821995621209e-16 0.9999999999999999
  outer loop
    vertex 17.443707238998307 11.960529543179494 23.98914644995562
    vertex 18.766571547314676 8.562067129435782 23.98914644995561
    vertex 17.490208652782183 12.072793887006046 23.98914644995562
  endloop
endfacet
facet normal 1.6173372711471966e-16 1.5407821995621209e-16 0.9999999999999999
  outer loop
    vertex 17.490208652782183 12.072793887006046 23.98914644995562
    vertex 18.766571547314676 8.562067129435782 23.98914644995561
    vertex 17.490208652782183 12.17274866388086 23.98914644995562
  endloop
endfacet
facet normal 1.6173372711471966e-16 1.5407821995621209e-16 0.9999999999999999
  outer loop
    vertex 17.490208652782183 12.17274866388086 23.98914644995562
    vertex 18.766571547314676 8.562067129435782 23.98914644995561
    vertex 18.766571547314676 12.17274866388086 23.98914644995561
  endloop
endfacet
facet normal 1.6173372711471966e-16 1.5407821995621209e-16 0.9999999999999999
  outer loop
    vertex 18.766571547314676 17.351620587518045 23.989146449955612
    vertex 17.37198135551268 17.451562485667424 23.98914644995562
    vertex 17.37198135551268 17.351620587518045 23.98914644995562
  endloop
endfacet
facet normal 1.6173372711471966e-16 1.5407821995621209e-16 0.9999999999999999
  outer loop
    vertex 6.672043545462057 31.65162058751805 23.98914644995561
    vertex 8.094862630653234 17.358087494419504 23.98914644995562
    vertex 18.766571547314676 31.65162058751805 23.98914644995561
  endloop
endfacet
facet normal 1.6173372711471966e-16 1.5407821995621209e-16 0.9999999999999999
  outer loop
    vertex 8.094862630653234 17.358087494419504 23.98914644995562
    vertex 6.672043545462057 31.65162058751805 23.98914644995561
    vertex 7.555644310831132 16.056299313624955 23.98914644995562
  endloop
endfacet
facet normal 1.6173372711471966e-16 1.5407821995621209e-16 0.9999999999999999
  outer loop
    vertex 7.555644310831132 16.056299313624955 23.98914644995562
    vertex 6.672043545462057 31.65162058751805 23.98914644995561
    vertex 7.37172698358576 14.659308518799499 23.98914644995562
  endloop
endfacet
facet normal 1.6173372711471966e-16 1.5407821995621209e-16 0.9999999999999999
  outer loop
    vertex 18.766571547314676 31.65162058751805 23.98914644995561
    vertex 8.094862630653234 17.358087494419504 23.98914644995562
    vertex 8.952635105656588 18.475958347968675 23.98914644995562
  endloop
endfacet
facet normal 1.6173372711471966e-16 1.5407821995621209e-16 0.9999999999999999
  outer loop
    vertex 18.766571547314676 31.65162058751805 23.98914644995561
    vertex 8.952635105656588 18.475958347968675 23.98914644995562
    vertex 10.070505959205763 19.333730822972036 23.98914644995562
  endloop
endfacet
facet normal 1.6173372711471966e-16 1.5407821995621209e-16 0.9999999999999999
  outer loop
    vertex 18.766571547314676 31.65162058751805 23.98914644995561
    vertex 10.070505959205763 19.333730822972036 23.98914644995562
    vertex 11.372294140000308 19.872949142794134 23.98914644995562
  endloop
endfacet
facet normal 1.6173372711471966e-16 1.5407821995621209e-16 0.9999999999999999
  outer loop
    vertex 18.766571547314676 31.65162058751805 23.98914644995561
    vertex 11.372294140000308 19.872949142794134 23.98914644995562
    vertex 12.769284934825771 20.05686647003951 23.98914644995562
  endloop
endfacet
facet normal 1.6173372711471966e-16 1.5407821995621209e-16 0.9999999999999999
  outer loop
    vertex 18.766571547314676 31.65162058751805 23.98914644995561
    vertex 12.769284934825771 20.05686647003951 23.98914644995562
    vertex 14.166275729651225 19.872949142794134 23.98914644995562
  endloop
endfacet
facet normal 1.6173372711471966e-16 1.5407821995621209e-16 0.9999999999999999
  outer loop
    vertex 18.766571547314676 31.65162058751805 23.98914644995561
    vertex 14.166275729651225 19.872949142794134 23.98914644995562
    vertex 15.46806391044577 19.33373082297204 23.98914644995562
  endloop
endfacet
facet normal 1.6173372711471966e-16 1.5407821995621209e-16 0.9999999999999999
  outer loop
    vertex 18.766571547314676 31.65162058751805 23.98914644995561
    vertex 15.46806391044577 19.33373082297204 23.98914644995562
    vertex 16.58593476399495 18.47595834796868 23.98914644995562
  endloop
endfacet
facet normal 1.6173372711471966e-16 1.5407821995621209e-16 0.9999999999999999
  outer loop
    vertex 18.766571547314676 31.65162058751805 23.98914644995561
    vertex 16.58593476399495 18.47595834796868 23.98914644995562
    vertex 17.37198135551268 17.451562485667424 23.98914644995562
  endloop
endfacet
facet normal 1.6173372711471966e-16 1.5407821995621209e-16 0.9999999999999999
  outer loop
    vertex 18.766571547314676 31.65162058751805 23.98914644995561
    vertex 17.37198135551268 17.451562485667424 23.98914644995562
    vertex 18.766571547314676 17.351620587518045 23.989146449955612
  endloop
endfacet
facet normal 3.8266023178918644e-09 -1.833596914746641e-09 0.9999999999999999
  outer loop
    vertex 8.952635105656592 10.84265868963032 27.9873375249482
    vertex 9.153939432421627 13.836914810603922 27.9873375249482
    vertex 9.026219066279006 14.807047307010489 27.987337524948195
  endloop
endfacet
facet normal 3.8266023178918644e-09 -1.833596914746641e-09 0.9999999999999999
  outer loop
    vertex 9.153939432421627 13.836914810603922 27.9873375249482
    vertex 8.952635105656592 10.84265868963032 27.9873375249482
    vertex 10.070505959205766 9.984886214626961 27.9873375249482
  endloop
endfacet
facet normal 3.8266023178918644e-09 -1.833596914746641e-09 0.9999999999999999
  outer loop
    vertex 9.153939432421627 13.836914810603922 27.9873375249482
    vertex 10.070505959205766 9.984886214626961 27.9873375249482
    vertex 9.52839659896475 12.932895240607708 27.9873375249482
  endloop
endfacet
facet normal 3.8266023178918644e-09 -1.833596914746641e-09 0.9999999999999999
  outer loop
    vertex 9.52839659896475 12.932895240607708 27.9873375249482
    vertex 10.070505959205766 9.984886214626961 27.9873375249482
    vertex 10.124071928828194 12.156596036754111 27.9873375249482
  endloop
endfacet
facet normal 3.8266023178918644e-09 -1.833596914746641e-09 0.9999999999999999
  outer loop
    vertex 10.124071928828194 12.156596036754111 27.9873375249482
    vertex 10.070505959205766 9.984886214626961 27.9873375249482
    vertex 11.372294140000312 9.445667894804862 27.9873375249482
  endloop
endfacet
facet normal 3.8266023178918644e-09 -1.833596914746641e-09 0.9999999999999999
  outer loop
    vertex 10.124071928828194 12.156596036754111 27.9873375249482
    vertex 11.372294140000312 9.445667894804862 27.9873375249482
    vertex 10.900371132681785 11.560920706890672 27.9873375249482
  endloop
endfacet
facet normal 3.8266023178918644e-09 -1.833596914746641e-09 0.9999999999999999
  outer loop
    vertex 10.900371132681785 11.560920706890672 27.9873375249482
    vertex 11.372294140000312 9.445667894804862 27.9873375249482
    vertex 11.804390702677997 11.186463540347548 27.9873375249482
  endloop
endfacet
facet normal 3.8266023178918644e-09 -1.833596914746641e-09 0.9999999999999999
  outer loop
    vertex 11.804390702677997 11.186463540347548 27.9873375249482
    vertex 11.372294140000312 9.445667894804862 27.9873375249482
    vertex 12.769284934825771 9.26175056755949 27.9873375249482
  endloop
endfacet
facet normal 3.8266023178918644e-09 -1.833596914746641e-09 0.9999999999999999
  outer loop
    vertex 11.804390702677997 11.186463540347548 27.9873375249482
    vertex 12.769284934825771 9.26175056755949 27.9873375249482
    vertex 12.77452319908457 11.058743174204922 27.9873375249482
  endloop
endfacet
facet normal 3.8266023178918644e-09 -1.833596914746641e-09 0.9999999999999999
  outer loop
    vertex 12.77452319908457 11.058743174204922 27.9873375249482
    vertex 12.769284934825771 9.26175056755949 27.9873375249482
    vertex 14.16627572965123 9.445667894804862 27.9873375249482
  endloop
endfacet
facet normal 3.8266023178918644e-09 -1.833596914746641e-09 0.9999999999999999
  outer loop
    vertex 12.77452319908457 11.058743174204922 27.9873375249482
    vertex 14.16627572965123 9.445667894804862 27.9873375249482
    vertex 13.744655695491138 11.186463540347548 27.9873375249482
  endloop
endfacet
facet normal 3.8266023178918644e-09 -1.833596914746641e-09 0.9999999999999999
  outer loop
    vertex 13.744655695491138 11.186463540347548 27.9873375249482
    vertex 14.16627572965123 9.445667894804862 27.9873375249482
    vertex 14.64867526548735 11.560920706890672 27.9873375249482
  endloop
endfacet
facet normal 3.8266023178918644e-09 -1.833596914746641e-09 0.9999999999999999
  outer loop
    vertex 14.64867526548735 11.560920706890672 27.9873375249482
    vertex 14.16627572965123 9.445667894804862 27.9873375249482
    vertex 15.468063910445775 9.984886214626961 27.9873375249482
  endloop
endfacet
facet normal 3.8266023178918644e-09 -1.833596914746641e-09 0.9999999999999999
  outer loop
    vertex 14.64867526548735 11.560920706890672 27.9873375249482
    vertex 15.468063910445775 9.984886214626961 27.9873375249482
    vertex 15.29686077681989 12.058290942953072 27.9873375249482
  endloop
endfacet
facet normal 3.8266023178918644e-09 -1.833596914746641e-09 0.9999999999999999
  outer loop
    vertex 15.29686077681989 12.058290942953072 27.9873375249482
    vertex 16.904447009531196 12.163861389556661 27.9873375249482
    vertex 15.296511651755868 12.158245110108743 27.9873375249482
  endloop
endfacet
facet normal 3.8266023178918644e-09 -1.833596914746641e-09 0.9999999999999999
  outer loop
    vertex 16.904447009531196 12.163861389556661 27.9873375249482
    vertex 15.29686077681989 12.058290942953072 27.9873375249482
    vertex 15.468063910445775 9.984886214626961 27.9873375249482
  endloop
endfacet
facet normal 3.8266023178918644e-09 -1.833596914746641e-09 0.9999999999999999
  outer loop
    vertex 16.904447009531196 12.163861389556661 27.9873375249482
    vertex 15.468063910445775 9.984886214626961 27.9873375249482
    vertex 16.585934763994953 10.84265868963032 27.9873375249482
  endloop
endfacet
facet normal 3.8266023178918644e-09 -1.833596914746641e-09 0.9999999999999999
  outer loop
    vertex 16.904447009531196 12.163861389556661 27.9873375249482
    vertex 16.585934763994953 10.84265868963032 27.9873375249482
    vertex 17.443707238998307 11.960529543179494 27.9873375249482
  endloop
endfacet
facet normal 3.8266023178918644e-09 -1.833596914746641e-09 0.9999999999999999
  outer loop
    vertex 16.904447009531196 12.163861389556661 27.9873375249482
    vertex 17.443707238998307 11.960529543179494 27.9873375249482
    vertex 17.456725977595223 12.172735732183474 27.987337089333952
  endloop
endfacet
facet normal 3.8266023178918644e-09 -1.833596914746641e-09 0.9999999999999999
  outer loop
    vertex 17.456725977595223 12.172735732183474 27.987337089333952
    vertex 17.443707238998307 11.960529543179494 27.9873375249482
    vertex 17.490208652782183 12.072793887006046 27.9873375249482
  endloop
endfacet
facet normal 3.8266023178918644e-09 -1.833596914746641e-09 0.9999999999999999
  outer loop
    vertex 17.456725977595223 12.172735732183474 27.987337089333952
    vertex 17.490208652782183 12.072793887006046 27.9873375249482
    vertex 17.490208652782183 12.17274866388086 27.9873375249482
  endloop
endfacet
facet normal 3.8266023178918644e-09 -1.833596914746641e-09 0.9999999999999999
  outer loop
    vertex 16.811032656550378 17.34299616624363 27.9873375249482
    vertex 15.29686077681989 17.555803671067906 27.9873375249482
    vertex 15.289449715134065 17.456124016249166 27.9873375249482
  endloop
endfacet
facet normal 3.8266023178918644e-09 -1.833596914746641e-09 0.9999999999999999
  outer loop
    vertex 15.29686077681989 17.555803671067906 27.9873375249482
    vertex 16.811032656550378 17.34299616624363 27.9873375249482
    vertex 15.46806391044577 19.33373082297204 27.9873375249482
  endloop
endfacet
facet normal 3.8266023178918644e-09 -1.833596914746641e-09 0.9999999999999999
  outer loop
    vertex 15.46806391044577 19.33373082297204 27.9873375249482
    vertex 16.811032656550378 17.34299616624363 27.9873375249482
    vertex 16.58593476399495 18.47595834796868 27.9873375249482
  endloop
endfacet
facet normal 3.8266023178918644e-09 -1.833596914746641e-09 0.9999999999999999
  outer loop
    vertex 16.58593476399495 18.47595834796868 27.9873375249482
    vertex 16.811032656550378 17.34299616624363 27.9873375249482
    vertex 17.37198135551268 17.451562485667424 27.9873375249482
  endloop
endfacet
facet normal 3.8266023178918644e-09 -1.833596914746641e-09 0.9999999999999999
  outer loop
    vertex 17.37198135551268 17.451562485667424 27.9873375249482
    vertex 16.811032656550378 17.34299616624363 27.9873375249482
    vertex 16.820048216411283 17.34273392291299 27.9873375249482
  endloop
endfacet
facet normal 3.8266023178918644e-09 -1.833596914746641e-09 0.9999999999999999
  outer loop
    vertex 17.37198135551268 17.451562485667424 27.9873375249482
    vertex 16.820048216411283 17.34273392291299 27.9873375249482
    vertex 17.373585853687757 17.351620587518045 27.9873375249482
  endloop
endfacet
facet normal 3.8266023178918644e-09 -1.833596914746641e-09 0.9999999999999999
  outer loop
    vertex 7.555644310831133 13.262317723974038 27.9873375249482
    vertex 7.555644310831132 16.056299313624955 27.9873375249482
    vertex 7.37172698358576 14.659308518799499 27.9873375249482
  endloop
endfacet
facet normal 3.8266023178918644e-09 -1.833596914746641e-09 0.9999999999999999
  outer loop
    vertex 7.555644310831132 16.056299313624955 27.9873375249482
    vertex 7.555644310831133 13.262317723974038 27.9873375249482
    vertex 8.094862630653234 17.358087494419504 27.9873375249482
  endloop
endfacet
facet normal 3.8266023178918644e-09 -1.833596914746641e-09 0.9999999999999999
  outer loop
    vertex 8.094862630653234 17.358087494419504 27.9873375249482
    vertex 7.555644310831133 13.262317723974038 27.9873375249482
    vertex 8.094862630653235 11.960529543179492 27.9873375249482
  endloop
endfacet
facet normal 3.8266023178918644e-09 -1.833596914746641e-09 0.9999999999999999
  outer loop
    vertex 8.094862630653234 17.358087494419504 27.9873375249482
    vertex 8.094862630653235 11.960529543179492 27.9873375249482
    vertex 8.952635105656588 18.475958347968675 27.9873375249482
  endloop
endfacet
facet normal 3.8266023178918644e-09 -1.833596914746641e-09 0.9999999999999999
  outer loop
    vertex 8.952635105656588 18.475958347968675 27.9873375249482
    vertex 8.094862630653235 11.960529543179492 27.9873375249482
    vertex 8.952635105656592 10.84265868963032 27.9873375249482
  endloop
endfacet
facet normal 3.8266023178918644e-09 -1.833596914746641e-09 0.9999999999999999
  outer loop
    vertex 8.952635105656588 18.475958347968675 27.9873375249482
    vertex 8.952635105656592 10.84265868963032 27.9873375249482
    vertex 9.026219066279006 14.807047307010489 27.987337524948195
  endloop
endfacet
facet normal 3.8266023178918644e-09 -1.833596914746641e-09 0.9999999999999999
  outer loop
    vertex 8.952635105656588 18.475958347968675 27.9873375249482
    vertex 9.026219066279006 14.807047307010489 27.987337524948195
    vertex 9.153939432421627 15.777179803417061 27.9873375249482
  endloop
endfacet
facet normal 3.8266023178918644e-09 -1.833596914746641e-09 0.9999999999999999
  outer loop
    vertex 8.952635105656588 18.475958347968675 27.9873375249482
    vertex 9.153939432421627 15.777179803417061 27.9873375249482
    vertex 10.070505959205763 19.333730822972036 27.9873375249482
  endloop
endfacet
facet normal 3.8266023178918644e-09 -1.833596914746641e-09 0.9999999999999999
  outer loop
    vertex 10.070505959205763 19.333730822972036 27.9873375249482
    vertex 9.153939432421627 15.777179803417061 27.9873375249482
    vertex 9.528396598964752 16.68119937341327 27.9873375249482
  endloop
endfacet
facet normal 3.8266023178918644e-09 -1.833596914746641e-09 0.9999999999999999
  outer loop
    vertex 10.070505959205763 19.333730822972036 27.9873375249482
    vertex 9.528396598964752 16.68119937341327 27.9873375249482
    vertex 10.124071928828194 17.457498577266865 27.9873375249482
  endloop
endfacet
facet normal 3.8266023178918644e-09 -1.833596914746641e-09 0.9999999999999999
  outer loop
    vertex 10.070505959205763 19.333730822972036 27.9873375249482
    vertex 10.124071928828194 17.457498577266865 27.9873375249482
    vertex 11.372294140000308 19.872949142794134 27.9873375249482
  endloop
endfacet
facet normal 3.8266023178918644e-09 -1.833596914746641e-09 0.9999999999999999
  outer loop
    vertex 11.372294140000308 19.872949142794134 27.9873375249482
    vertex 10.124071928828194 17.457498577266865 27.9873375249482
    vertex 10.900371132681789 18.053173907130308 27.9873375249482
  endloop
endfacet
facet normal 3.8266023178918644e-09 -1.833596914746641e-09 0.9999999999999999
  outer loop
    vertex 11.372294140000308 19.872949142794134 27.9873375249482
    vertex 10.900371132681789 18.053173907130308 27.9873375249482
    vertex 11.804390702678003 18.427631073673435 27.9873375249482
  endloop
endfacet
facet normal 3.8266023178918644e-09 -1.833596914746641e-09 0.9999999999999999
  outer loop
    vertex 11.372294140000308 19.872949142794134 27.9873375249482
    vertex 11.804390702678003 18.427631073673435 27.9873375249482
    vertex 12.769284934825771 20.05686647003951 27.9873375249482
  endloop
endfacet
facet normal 3.8266023178918644e-09 -1.833596914746641e-09 0.9999999999999999
  outer loop
    vertex 12.769284934825771 20.05686647003951 27.9873375249482
    vertex 11.804390702678003 18.427631073673435 27.9873375249482
    vertex 12.77452319908457 18.55535143981605 27.9873375249482
  endloop
endfacet
facet normal 3.8266023178918644e-09 -1.833596914746641e-09 0.9999999999999999
  outer loop
    vertex 12.769284934825771 20.05686647003951 27.9873375249482
    vertex 12.77452319908457 18.55535143981605 27.9873375249482
    vertex 14.166275729651225 19.872949142794134 27.9873375249482
  endloop
endfacet
facet normal 3.8266023178918644e-09 -1.833596914746641e-09 0.9999999999999999
  outer loop
    vertex 14.166275729651225 19.872949142794134 27.9873375249482
    vertex 12.77452319908457 18.55535143981605 27.9873375249482
    vertex 13.744655695491138 18.427631073673435 27.9873375249482
  endloop
endfacet
facet normal 3.8266023178918644e-09 -1.833596914746641e-09 0.9999999999999999
  outer loop
    vertex 14.166275729651225 19.872949142794134 27.9873375249482
    vertex 13.744655695491138 18.427631073673435 27.9873375249482
    vertex 14.648675265487356 18.053173907130304 27.9873375249482
  endloop
endfacet
facet normal 3.8266023178918644e-09 -1.833596914746641e-09 0.9999999999999999
  outer loop
    vertex 14.166275729651225 19.872949142794134 27.9873375249482
    vertex 14.648675265487356 18.053173907130304 27.9873375249482
    vertex 15.46806391044577 19.33373082297204 27.9873375249482
  endloop
endfacet
facet normal 3.8266023178918644e-09 -1.833596914746641e-09 0.9999999999999999
  outer loop
    vertex 15.46806391044577 19.33373082297204 27.9873375249482
    vertex 14.648675265487356 18.053173907130304 27.9873375249482
    vertex 15.29686077681989 17.555803671067906 27.9873375249482
  endloop
endfacet
facet normal 0.0034928302072218145 -0.9999939000499671 0.0
  outer loop
    vertex 16.904447009531196 12.163861389556661 32.1854381536904
    vertex 15.296511651755868 12.158245110108743 27.9873375249482
    vertex 16.904447009531196 12.163861389556661 27.9873375249482
  endloop
endfacet
facet normal 0.0034928302072218145 -0.9999939000499671 0.0
  outer loop
    vertex 15.296511651755868 12.158245110108743 27.9873375249482
    vertex 16.904447009531196 12.163861389556661 32.1854381536904
    vertex 15.296511651755868 12.158245110108743 32.1854381536904
  endloop
endfacet
facet normal 0.999993900049967 0.003492830207221814 0.0
  outer loop
    vertex 15.296511651755868 12.158245110108743 27.9873375249482
    vertex 15.29686077681989 12.058290942953072 32.1854381536904
    vertex 15.29686077681989 12.058290942953072 27.9873375249482
  endloop
endfacet
facet normal 0.999993900049967 0.003492830207221814 0.0
  outer loop
    vertex 15.29686077681989 12.058290942953072 32.1854381536904
    vertex 15.296511651755868 12.158245110108743 27.9873375249482
    vertex 15.296511651755868 12.158245110108743 32.1854381536904
  endloop
endfacet
facet normal 0.016099593367904504 -0.9998703931382112 4.36200847638924e-06
  outer loop
    vertex 17.45445111883182 12.172735732183474 32.185437718076145
    vertex 16.904447009531196 12.163861389556661 27.9873375249482
    vertex 17.456725977595223 12.172735732183474 27.987337089333952
  endloop
endfacet
facet normal 0.016099593367904504 -0.9998703931382112 4.36200847638924e-06
  outer loop
    vertex 16.904447009531196 12.163861389556661 27.9873375249482
    vertex 17.45445111883182 12.172735732183474 32.185437718076145
    vertex 16.904447009531196 12.163861389556661 32.1854381536904
  endloop
endfacet
facet normal 6.700021209036999e-06 -0.9999999999771774 -8.687655894895786e-07
  outer loop
    vertex 18.766571547314694 12.172748663880862 32.1854381536904
    vertex 17.490208652782183 12.17274866388086 27.9873375249482
    vertex 18.76657154731468 12.172748663880862 27.987337524948185
  endloop
endfacet
facet normal 6.700021209036999e-06 -0.9999999999771774 -8.687655894895786e-07
  outer loop
    vertex 17.490208652782183 12.17274866388086 27.9873375249482
    vertex 18.766571547314694 12.172748663880862 32.1854381536904
    vertex 17.45445111883182 12.172735732183474 32.185437718076145
  endloop
endfacet
facet normal 6.700021209036999e-06 -0.9999999999771774 -8.687655894895786e-07
  outer loop
    vertex 17.45445111883182 12.172735732183474 32.185437718076145
    vertex 17.456725977595223 12.172735732183474 27.987337089333952
    vertex 17.490208652782183 12.17274866388086 27.9873375249482
  endloop
endfacet
facet normal 1.6383957071150112e-15 -0.9999999999999999 5.639932965095811e-16
  outer loop
    vertex 18.76657154731468 12.172748663880862 27.987337524948185
    vertex 17.490208652782183 12.17274866388086 23.98914644995562
    vertex 18.766571547314676 12.17274866388086 23.98914644995561
  endloop
endfacet
facet normal 1.6383957071150112e-15 -0.9999999999999999 5.639932965095811e-16
  outer loop
    vertex 17.490208652782183 12.17274866388086 23.98914644995562
    vertex 18.76657154731468 12.172748663880862 27.987337524948185
    vertex 17.490208652782183 12.17274866388086 27.9873375249482
  endloop
endfacet
facet normal 0.9999999999999999 0.0 0.0
  outer loop
    vertex 17.490208652782183 12.17274866388086 23.98914644995562
    vertex 17.490208652782183 12.072793887006046 27.9873375249482
    vertex 17.490208652782183 12.072793887006046 23.98914644995562
  endloop
endfacet
facet normal 0.9999999999999999 0.0 0.0
  outer loop
    vertex 17.490208652782183 12.072793887006046 27.9873375249482
    vertex 17.490208652782183 12.17274866388086 23.98914644995562
    vertex 17.490208652782183 12.17274866388086 27.9873375249482
  endloop
endfacet
facet normal 6.481975608165503e-09 -5.540410319053301e-09 0.9999999999999999
  outer loop
    vertex 9.153939432421627 13.836914810603922 32.1854381536904
    vertex 9.153939432421627 15.777179803417061 32.1854381536904
    vertex 9.026219066279006 14.807047307010489 32.1854381536904
  endloop
endfacet
facet normal 6.481975608165503e-09 -5.540410319053301e-09 0.9999999999999999
  outer loop
    vertex 9.153939432421627 15.777179803417061 32.1854381536904
    vertex 9.153939432421627 13.836914810603922 32.1854381536904
    vertex 9.52839659896475 12.932895240607708 32.1854381536904
  endloop
endfacet
facet normal 6.481975608165503e-09 -5.540410319053301e-09 0.9999999999999999
  outer loop
    vertex 9.153939432421627 15.777179803417061 32.1854381536904
    vertex 9.52839659896475 12.932895240607708 32.1854381536904
    vertex 9.528396598964752 16.68119937341327 32.1854381536904
  endloop
endfacet
facet normal 6.481975608165503e-09 -5.540410319053301e-09 0.9999999999999999
  outer loop
    vertex 9.528396598964752 16.68119937341327 32.1854381536904
    vertex 9.52839659896475 12.932895240607708 32.1854381536904
    vertex 10.124071928828194 12.156596036754111 32.1854381536904
  endloop
endfacet
facet normal 6.481975608165503e-09 -5.540410319053301e-09 0.9999999999999999
  outer loop
    vertex 9.528396598964752 16.68119937341327 32.1854381536904
    vertex 10.124071928828194 12.156596036754111 32.1854381536904
    vertex 10.124071928828194 17.457498577266865 32.1854381536904
  endloop
endfacet
facet normal 6.481975608165503e-09 -5.540410319053301e-09 0.9999999999999999
  outer loop
    vertex 10.124071928828194 17.457498577266865 32.1854381536904
    vertex 10.124071928828194 12.156596036754111 32.1854381536904
    vertex 10.900371132681785 11.560920706890672 32.1854381536904
  endloop
endfacet
facet normal 6.481975608165503e-09 -5.540410319053301e-09 0.9999999999999999
  outer loop
    vertex 10.124071928828194 17.457498577266865 32.1854381536904
    vertex 10.900371132681785 11.560920706890672 32.1854381536904
    vertex 10.900371132681789 18.053173907130308 32.1854381536904
  endloop
endfacet
facet normal 6.481975608165503e-09 -5.540410319053301e-09 0.9999999999999999
  outer loop
    vertex 10.900371132681789 18.053173907130308 32.1854381536904
    vertex 10.900371132681785 11.560920706890672 32.1854381536904
    vertex 11.804390702677997 11.186463540347548 32.1854381536904
  endloop
endfacet
facet normal 6.481975608165503e-09 -5.540410319053301e-09 0.9999999999999999
  outer loop
    vertex 10.900371132681789 18.053173907130308 32.1854381536904
    vertex 11.804390702677997 11.186463540347548 32.1854381536904
    vertex 11.804390702678003 18.427631073673435 32.1854381536904
  endloop
endfacet
facet normal 6.481975608165503e-09 -5.540410319053301e-09 0.9999999999999999
  outer loop
    vertex 11.804390702678003 18.427631073673435 32.1854381536904
    vertex 11.804390702677997 11.186463540347548 32.1854381536904
    vertex 11.97488498408605 14.807047307010485 32.18543816764986
  endloop
endfacet
facet normal 6.481975608165503e-09 -5.540410319053301e-09 0.9999999999999999
  outer loop
    vertex 11.97488498408605 14.807047307010485 32.18543816764986
    vertex 11.804390702677997 11.186463540347548 32.1854381536904
    vertex 12.002131995529808 14.600085707777085 32.18543816449288
  endloop
endfacet
facet normal 6.481975608165503e-09 -5.540410319053301e-09 0.9999999999999999
  outer loop
    vertex 12.002131995529808 14.600085707777085 32.18543816449288
    vertex 11.804390702677997 11.186463540347548 32.1854381536904
    vertex 12.77452319908457 11.058743174204922 32.1854381536904
  endloop
endfacet
facet normal 6.481975608165503e-09 -5.540410319053301e-09 0.9999999999999999
  outer loop
    vertex 12.002131995529808 14.600085707777085 32.18543816449288
    vertex 12.77452319908457 11.058743174204922 32.1854381536904
    vertex 12.082016191059008 14.407228199511225 32.185438160599716
  endloop
endfacet
facet normal 6.481975608165503e-09 -5.540410319053301e-09 0.9999999999999999
  outer loop
    vertex 12.082016191059008 14.407228199511225 32.185438160599716
    vertex 12.77452319908457 11.058743174204922 32.1854381536904
    vertex 12.20909359476321 14.241617702689126 32.18543815623568
  endloop
endfacet
facet normal 6.481975608165503e-09 -5.540410319053301e-09 0.9999999999999999
  outer loop
    vertex 12.20909359476321 14.241617702689126 32.18543815623568
    vertex 12.77452319908457 11.058743174204922 32.1854381536904
    vertex 12.374704091585311 14.114540298984926 32.18543815169821
  endloop
endfacet
facet normal 6.481975608165503e-09 -5.540410319053301e-09 0.9999999999999999
  outer loop
    vertex 12.374704091585311 14.114540298984926 32.18543815169821
    vertex 12.77452319908457 11.058743174204922 32.1854381536904
    vertex 12.56756159985117 14.034656103455726 32.18543814729648
  endloop
endfacet
facet normal 6.481975608165503e-09 -5.540410319053301e-09 0.9999999999999999
  outer loop
    vertex 12.56756159985117 14.034656103455726 32.18543814729648
    vertex 12.77452319908457 11.058743174204922 32.1854381536904
    vertex 12.77452319908457 14.007409092011967 32.18543814333051
  endloop
endfacet
facet normal 6.481975608165503e-09 -5.540410319053301e-09 0.9999999999999999
  outer loop
    vertex 12.77452319908457 14.007409092011967 32.18543814333051
    vertex 12.77452319908457 11.058743174204922 32.1854381536904
    vertex 13.744655695491138 11.186463540347548 32.1854381536904
  endloop
endfacet
facet normal 6.481975608165503e-09 -5.540410319053301e-09 0.9999999999999999
  outer loop
    vertex 12.77452319908457 14.007409092011967 32.18543814333051
    vertex 13.744655695491138 11.186463540347548 32.1854381536904
    vertex 12.981484798317972 14.034656103455726 32.18543814007053
  endloop
endfacet
facet normal 6.481975608165503e-09 -5.540410319053301e-09 0.9999999999999999
  outer loop
    vertex 12.981484798317972 14.034656103455726 32.18543814007053
    vertex 13.744655695491138 11.186463540347548 32.1854381536904
    vertex 13.174342306583833 14.114540298984926 32.18543813773873
  endloop
endfacet
facet normal 6.481975608165503e-09 -5.540410319053301e-09 0.9999999999999999
  outer loop
    vertex 13.174342306583833 14.114540298984926 32.18543813773873
    vertex 13.744655695491138 11.186463540347548 32.1854381536904
    vertex 13.33995280340593 14.24161770268913 32.185438136494
  endloop
endfacet
facet normal 6.481975608165503e-09 -5.540410319053301e-09 0.9999999999999999
  outer loop
    vertex 13.33995280340593 14.24161770268913 32.185438136494
    vertex 13.744655695491138 11.186463540347548 32.1854381536904
    vertex 13.467030207110133 14.407228199511227 32.18543813642118
  endloop
endfacet
facet normal 6.481975608165503e-09 -5.540410319053301e-09 0.9999999999999999
  outer loop
    vertex 13.467030207110133 14.407228199511227 32.18543813642118
    vertex 13.744655695491138 11.186463540347548 32.1854381536904
    vertex 13.54691440263933 14.600085707777088 32.18543813752524
  endloop
endfacet
facet normal 6.481975608165503e-09 -5.540410319053301e-09 0.9999999999999999
  outer loop
    vertex 13.54691440263933 14.600085707777088 32.18543813752524
    vertex 13.744655695491138 11.186463540347548 32.1854381536904
    vertex 13.574161414083092 14.807047307010489 32.18543813973092
  endloop
endfacet
facet normal 6.481975608165503e-09 -5.540410319053301e-09 0.9999999999999999
  outer loop
    vertex 11.804390702678003 18.427631073673435 32.1854381536904
    vertex 12.002131995529808 15.01400890624389 32.18543816985555
    vertex 12.77452319908457 18.55535143981605 32.1854381536904
  endloop
endfacet
facet normal 6.481975608165503e-09 -5.540410319053301e-09 0.9999999999999999
  outer loop
    vertex 12.002131995529808 15.01400890624389 32.18543816985555
    vertex 11.804390702678003 18.427631073673435 32.1854381536904
    vertex 11.97488498408605 14.807047307010485 32.18543816764986
  endloop
endfacet
facet normal 6.481975608165503e-09 -5.540410319053301e-09 0.9999999999999999
  outer loop
    vertex 12.77452319908457 18.55535143981605 32.1854381536904
    vertex 12.002131995529808 15.01400890624389 32.18543816985555
    vertex 12.082016191059008 15.206866414509747 32.18543817095961
  endloop
endfacet
facet normal 6.481975608165503e-09 -5.540410319053301e-09 0.9999999999999999
  outer loop
    vertex 12.77452319908457 18.55535143981605 32.1854381536904
    vertex 12.082016191059008 15.206866414509747 32.18543817095961
    vertex 12.209093594763209 15.372476911331848 32.18543817088679
  endloop
endfacet
facet normal 6.481975608165503e-09 -5.540410319053301e-09 0.9999999999999999
  outer loop
    vertex 12.77452319908457 18.55535143981605 32.1854381536904
    vertex 12.209093594763209 15.372476911331848 32.18543817088679
    vertex 12.374704091585308 15.499554315036052 32.185438169642076
  endloop
endfacet
facet normal 6.481975608165503e-09 -5.540410319053301e-09 0.9999999999999999
  outer loop
    vertex 12.77452319908457 18.55535143981605 32.1854381536904
    vertex 12.374704091585308 15.499554315036052 32.185438169642076
    vertex 12.567561599851167 15.579438510565252 32.185438167310274
  endloop
endfacet
facet normal 6.481975608165503e-09 -5.540410319053301e-09 0.9999999999999999
  outer loop
    vertex 12.77452319908457 18.55535143981605 32.1854381536904
    vertex 12.567561599851167 15.579438510565252 32.185438167310274
    vertex 12.77452319908457 15.60668552200901 32.1854381640503
  endloop
endfacet
facet normal 6.481975608165503e-09 -5.540410319053301e-09 0.9999999999999999
  outer loop
    vertex 12.77452319908457 18.55535143981605 32.1854381536904
    vertex 12.77452319908457 15.60668552200901 32.1854381640503
    vertex 12.98148479831797 15.579438510565252 32.18543816008432
  endloop
endfacet
facet normal 6.481975608165503e-09 -5.540410319053301e-09 0.9999999999999999
  outer loop
    vertex 12.77452319908457 18.55535143981605 32.1854381536904
    vertex 12.98148479831797 15.579438510565252 32.18543816008432
    vertex 13.744655695491138 18.427631073673435 32.1854381536904
  endloop
endfacet
facet normal 6.481975608165503e-09 -5.540410319053301e-09 0.9999999999999999
  outer loop
    vertex 13.744655695491138 18.427631073673435 32.1854381536904
    vertex 12.98148479831797 15.579438510565252 32.18543816008432
    vertex 13.174342306583828 15.499554315036052 32.1854381556826
  endloop
endfacet
facet normal 6.481975608165503e-09 -5.540410319053301e-09 0.9999999999999999
  outer loop
    vertex 13.744655695491138 18.427631073673435 32.1854381536904
    vertex 13.174342306583828 15.499554315036052 32.1854381556826
    vertex 13.33995280340593 15.37247691133185 32.185438151145114
  endloop
endfacet
facet normal 6.481975608165503e-09 -5.540410319053301e-09 0.9999999999999999
  outer loop
    vertex 13.744655695491138 18.427631073673435 32.1854381536904
    vertex 13.33995280340593 15.37247691133185 32.185438151145114
    vertex 13.467030207110133 15.206866414509749 32.18543814678108
  endloop
endfacet
facet normal 6.481975608165503e-09 -5.540410319053301e-09 0.9999999999999999
  outer loop
    vertex 13.744655695491138 18.427631073673435 32.1854381536904
    vertex 13.467030207110133 15.206866414509749 32.18543814678108
    vertex 13.54691440263933 15.01400890624389 32.18543814288792
  endloop
endfacet
facet normal 6.481975608165503e-09 -5.540410319053301e-09 0.9999999999999999
  outer loop
    vertex 13.744655695491138 18.427631073673435 32.1854381536904
    vertex 13.54691440263933 15.01400890624389 32.18543814288792
    vertex 13.574161414083092 14.807047307010489 32.18543813973092
  endloop
endfacet
facet normal 6.481975608165503e-09 -5.540410319053301e-09 0.9999999999999999
  outer loop
    vertex 13.744655695491138 18.427631073673435 32.1854381536904
    vertex 13.574161414083092 14.807047307010489 32.18543813973092
    vertex 13.744655695491138 11.186463540347548 32.1854381536904
  endloop
endfacet
facet normal 6.481975608165503e-09 -5.540410319053301e-09 0.9999999999999999
  outer loop
    vertex 13.744655695491138 18.427631073673435 32.1854381536904
    vertex 13.744655695491138 11.186463540347548 32.1854381536904
    vertex 14.64867526548735 11.560920706890672 32.1854381536904
  endloop
endfacet
facet normal 6.481975608165503e-09 -5.540410319053301e-09 0.9999999999999999
  outer loop
    vertex 13.744655695491138 18.427631073673435 32.1854381536904
    vertex 14.64867526548735 11.560920706890672 32.1854381536904
    vertex 14.648675265487356 18.053173907130304 32.1854381536904
  endloop
endfacet
facet normal 6.481975608165503e-09 -5.540410319053301e-09 0.9999999999999999
  outer loop
    vertex 14.648675265487356 18.053173907130304 32.1854381536904
    vertex 14.64867526548735 11.560920706890672 32.1854381536904
    vertex 15.29686077681989 12.058290942953072 32.1854381536904
  endloop
endfacet
facet normal 6.481975608165503e-09 -5.540410319053301e-09 0.9999999999999999
  outer loop
    vertex 14.648675265487356 18.053173907130304 32.1854381536904
    vertex 15.29686077681989 12.058290942953072 32.1854381536904
    vertex 15.296511651755868 12.158245110108743 32.1854381536904
  endloop
endfacet
facet normal 6.481975608165503e-09 -5.540410319053301e-09 0.9999999999999999
  outer loop
    vertex 14.648675265487356 18.053173907130304 32.1854381536904
    vertex 15.296511651755868 12.158245110108743 32.1854381536904
    vertex 15.289449715134065 17.456124016249166 32.1854381536904
  endloop
endfacet
facet normal 6.481975608165503e-09 -5.540410319053301e-09 0.9999999999999999
  outer loop
    vertex 15.296511651755868 12.158245110108743 32.1854381536904
    vertex 16.811032656550378 17.34299616624363 32.1854381536904
    vertex 15.289449715134065 17.456124016249166 32.1854381536904
  endloop
endfacet
facet normal 6.481975608165503e-09 -5.540410319053301e-09 0.9999999999999999
  outer loop
    vertex 16.811032656550378 17.34299616624363 32.1854381536904
    vertex 15.296511651755868 12.158245110108743 32.1854381536904
    vertex 16.904447009531196 12.163861389556661 32.1854381536904
  endloop
endfacet
facet normal 6.481975608165503e-09 -5.540410319053301e-09 0.9999999999999999
  outer loop
    vertex 16.811032656550378 17.34299616624363 32.1854381536904
    vertex 16.904447009531196 12.163861389556661 32.1854381536904
    vertex 16.820048216411283 17.34273392291299 32.1854381536904
  endloop
endfacet
facet normal 6.481975608165503e-09 -5.540410319053301e-09 0.9999999999999999
  outer loop
    vertex 16.820048216411283 17.34273392291299 32.1854381536904
    vertex 16.904447009531196 12.163861389556661 32.1854381536904
    vertex 17.373585853687757 17.351620587518045 32.1854381536904
  endloop
endfacet
facet normal 6.481975608165503e-09 -5.540410319053301e-09 0.9999999999999999
  outer loop
    vertex 17.373585853687757 17.351620587518045 32.1854381536904
    vertex 16.904447009531196 12.163861389556661 32.1854381536904
    vertex 17.45445111883182 12.172735732183474 32.185437718076145
  endloop
endfacet
facet normal 6.481975608165503e-09 -5.540410319053301e-09 0.9999999999999999
  outer loop
    vertex 17.373585853687757 17.351620587518045 32.1854381536904
    vertex 17.45445111883182 12.172735732183474 32.185437718076145
    vertex 18.766571547314694 17.351620587518045 32.1854381536904
  endloop
endfacet
facet normal 6.481975608165503e-09 -5.540410319053301e-09 0.9999999999999999
  outer loop
    vertex 18.766571547314694 17.351620587518045 32.1854381536904
    vertex 17.45445111883182 12.172735732183474 32.185437718076145
    vertex 18.766571547314694 12.172748663880862 32.1854381536904
  endloop
endfacet
facet normal 6.481975608165503e-09 -5.540410319053301e-09 0.9999999999999999
  outer loop
    vertex 15.29686077681989 17.555803671067906 32.1854381536904
    vertex 14.648675265487356 18.053173907130304 32.1854381536904
    vertex 15.289449715134065 17.456124016249166 32.1854381536904
  endloop
endfacet
facet normal 1.745724117372771e-08 -1.2955729654496608e-08 0.9999999999999997
  outer loop
    vertex 12.002131929222296 14.600085756986598 28.387156643249916
    vertex 12.002131929222296 15.014008955453399 28.387156648612596
    vertex 11.974884917778537 14.807047356219998 28.38715664640691
  endloop
endfacet
facet normal 1.745724117372771e-08 -1.2955729654496608e-08 0.9999999999999997
  outer loop
    vertex 12.002131929222296 15.014008955453399 28.387156648612596
    vertex 12.002131929222296 14.600085756986598 28.387156643249916
    vertex 12.082016124751496 14.407228248720736 28.387156639356746
  endloop
endfacet
facet normal 1.745724117372771e-08 -1.2955729654496608e-08 0.9999999999999997
  outer loop
    vertex 12.002131929222296 15.014008955453399 28.387156648612596
    vertex 12.082016124751496 14.407228248720736 28.387156639356746
    vertex 12.082016124751496 15.206866463719258 28.387156649716644
  endloop
endfacet
facet normal 1.745724117372771e-08 -1.2955729654496608e-08 0.9999999999999997
  outer loop
    vertex 12.082016124751496 15.206866463719258 28.387156649716644
    vertex 12.082016124751496 14.407228248720736 28.387156639356746
    vertex 12.209093528455698 14.241617751898639 28.38715663499272
  endloop
endfacet
facet normal 1.745724117372771e-08 -1.2955729654496608e-08 0.9999999999999997
  outer loop
    vertex 12.082016124751496 15.206866463719258 28.387156649716644
    vertex 12.209093528455698 14.241617751898639 28.38715663499272
    vertex 12.209093528455696 15.37247696054136 28.387156649643828
  endloop
endfacet
facet normal 1.745724117372771e-08 -1.2955729654496608e-08 0.9999999999999997
  outer loop
    vertex 12.209093528455696 15.37247696054136 28.387156649643828
    vertex 12.209093528455698 14.241617751898639 28.38715663499272
    vertex 12.374704025277797 15.499554364245562 28.387156648399106
  endloop
endfacet
facet normal 1.745724117372771e-08 -1.2955729654496608e-08 0.9999999999999997
  outer loop
    vertex 12.374704025277797 15.499554364245562 28.387156648399106
    vertex 12.209093528455698 14.241617751898639 28.38715663499272
    vertex 12.374704025277797 14.114540348194438 28.387156630455237
  endloop
endfacet
facet normal 1.745724117372771e-08 -1.2955729654496608e-08 0.9999999999999997
  outer loop
    vertex 12.374704025277797 15.499554364245562 28.387156648399106
    vertex 12.374704025277797 14.114540348194438 28.387156630455237
    vertex 12.567561533543655 15.57943855977476 28.387156646067304
  endloop
endfacet
facet normal 1.745724117372771e-08 -1.2955729654496608e-08 0.9999999999999997
  outer loop
    vertex 12.567561533543655 15.57943855977476 28.387156646067304
    vertex 12.374704025277797 14.114540348194438 28.387156630455237
    vertex 12.567561533543659 14.034656152665239 28.387156626053518
  endloop
endfacet
facet normal 1.745724117372771e-08 -1.2955729654496608e-08 0.9999999999999997
  outer loop
    vertex 12.567561533543655 15.57943855977476 28.387156646067304
    vertex 12.567561533543659 14.034656152665239 28.387156626053518
    vertex 12.774523132777059 15.60668557121852 28.387156642807327
  endloop
endfacet
facet normal 1.745724117372771e-08 -1.2955729654496608e-08 0.9999999999999997
  outer loop
    vertex 12.774523132777059 15.60668557121852 28.387156642807327
    vertex 12.567561533543659 14.034656152665239 28.387156626053518
    vertex 12.774523132777059 14.007409141221478 28.387156622087538
  endloop
endfacet
facet normal 1.745724117372771e-08 -1.2955729654496608e-08 0.9999999999999997
  outer loop
    vertex 12.774523132777059 15.60668557121852 28.387156642807327
    vertex 12.774523132777059 14.007409141221478 28.387156622087538
    vertex 12.981484732010463 14.034656152665239 28.38715661882756
  endloop
endfacet
facet normal 1.745724117372771e-08 -1.2955729654496608e-08 0.9999999999999997
  outer loop
    vertex 12.774523132777059 15.60668557121852 28.387156642807327
    vertex 12.981484732010463 14.034656152665239 28.38715661882756
    vertex 12.981484732010456 15.57943855977476 28.387156638841347
  endloop
endfacet
facet normal 1.745724117372771e-08 -1.2955729654496608e-08 0.9999999999999997
  outer loop
    vertex 12.981484732010456 15.57943855977476 28.387156638841347
    vertex 12.981484732010463 14.034656152665239 28.38715661882756
    vertex 13.174342240276317 15.499554364245562 28.387156634439627
  endloop
endfacet
facet normal 1.745724117372771e-08 -1.2955729654496608e-08 0.9999999999999997
  outer loop
    vertex 13.174342240276317 15.499554364245562 28.387156634439627
    vertex 12.981484732010463 14.034656152665239 28.38715661882756
    vertex 13.174342240276319 14.114540348194438 28.38715661649576
  endloop
endfacet
facet normal 1.745724117372771e-08 -1.2955729654496608e-08 0.9999999999999997
  outer loop
    vertex 13.174342240276317 15.499554364245562 28.387156634439627
    vertex 13.174342240276319 14.114540348194438 28.38715661649576
    vertex 13.339952737098418 15.37247696054136 28.387156629902144
  endloop
endfacet
facet normal 1.745724117372771e-08 -1.2955729654496608e-08 0.9999999999999997
  outer loop
    vertex 13.339952737098418 15.37247696054136 28.387156629902144
    vertex 13.174342240276319 14.114540348194438 28.38715661649576
    vertex 13.339952737098418 14.241617751898643 28.387156615251044
  endloop
endfacet
facet normal 1.745724117372771e-08 -1.2955729654496608e-08 0.9999999999999997
  outer loop
    vertex 13.339952737098418 15.37247696054136 28.387156629902144
    vertex 13.339952737098418 14.241617751898643 28.387156615251044
    vertex 13.467030140802619 15.206866463719262 28.38715662553812
  endloop
endfacet
facet normal 1.745724117372771e-08 -1.2955729654496608e-08 0.9999999999999997
  outer loop
    vertex 13.467030140802619 15.206866463719262 28.38715662553812
    vertex 13.339952737098418 14.241617751898643 28.387156615251044
    vertex 13.467030140802619 14.40722824872074 28.387156615178224
  endloop
endfacet
facet normal 1.745724117372771e-08 -1.2955729654496608e-08 0.9999999999999997
  outer loop
    vertex 13.467030140802619 15.206866463719262 28.38715662553812
    vertex 13.467030140802619 14.40722824872074 28.387156615178224
    vertex 13.546914336331819 14.6000857569866 28.387156616282276
  endloop
endfacet
facet normal 1.745724117372771e-08 -1.2955729654496608e-08 0.9999999999999997
  outer loop
    vertex 13.467030140802619 15.206866463719262 28.38715662553812
    vertex 13.546914336331819 14.6000857569866 28.387156616282276
    vertex 13.546914336331819 15.014008955453404 28.38715662164495
  endloop
endfacet
facet normal 1.745724117372771e-08 -1.2955729654496608e-08 0.9999999999999997
  outer loop
    vertex 13.546914336331819 15.014008955453404 28.38715662164495
    vertex 13.546914336331819 14.6000857569866 28.387156616282276
    vertex 13.574161347775577 14.80704735622 28.387156618487957
  endloop
endfacet
facet normal -0.6087614290087179 -0.7933533402912373 3.4882368616318905e-10
  outer loop
    vertex 13.33995280340593 15.37247691133185 32.185438151145114
    vertex 13.174342240276317 15.499554364245562 28.387156634439627
    vertex 13.339952737098418 15.37247696054136 28.387156629902144
  endloop
endfacet
facet normal -0.6087614290087179 -0.7933533402912373 3.4882368616318905e-10
  outer loop
    vertex 13.174342240276317 15.499554364245562 28.387156634439627
    vertex 13.33995280340593 15.37247691133185 32.185438151145114
    vertex 13.174342306583828 15.499554315036052 32.1854381556826
  endloop
endfacet
facet normal -0.3826834323650914 -0.923879532511286 -5.2889364845516144e-09
  outer loop
    vertex 13.174342306583828 15.499554315036052 32.1854381556826
    vertex 12.981484732010456 15.57943855977476 28.387156638841347
    vertex 13.174342240276317 15.499554364245562 28.387156634439627
  endloop
endfacet
facet normal -0.3826834323650914 -0.923879532511286 -5.2889364845516144e-09
  outer loop
    vertex 12.981484732010456 15.57943855977476 28.387156638841347
    vertex 13.174342306583828 15.499554315036052 32.1854381556826
    vertex 12.98148479831797 15.579438510565252 32.18543816008432
  endloop
endfacet
facet normal -0.13052619222005232 -0.9914448613738103 -1.056626437422516e-08
  outer loop
    vertex 12.98148479831797 15.579438510565252 32.18543816008432
    vertex 12.774523132777059 15.60668557121852 28.387156642807327
    vertex 12.981484732010456 15.57943855977476 28.387156638841347
  endloop
endfacet
facet normal -0.13052619222005232 -0.9914448613738103 -1.056626437422516e-08
  outer loop
    vertex 12.774523132777059 15.60668557121852 28.387156642807327
    vertex 12.98148479831797 15.579438510565252 32.18543816008432
    vertex 12.77452319908457 15.60668552200901 32.1854381640503
  endloop
endfacet
facet normal 0.13052619222005046 -0.9914448613738105 -1.5123518808372725e-08
  outer loop
    vertex 12.77452319908457 15.60668552200901 32.1854381640503
    vertex 12.567561533543655 15.57943855977476 28.387156646067304
    vertex 12.774523132777059 15.60668557121852 28.387156642807327
  endloop
endfacet
facet normal 0.13052619222005046 -0.9914448613738105 -1.5123518808372725e-08
  outer loop
    vertex 12.567561533543655 15.57943855977476 28.387156646067304
    vertex 12.77452319908457 15.60668552200901 32.1854381640503
    vertex 12.567561599851167 15.579438510565252 32.185438167310274
  endloop
endfacet
facet normal 0.38268343236509095 -0.923879532511286 -1.8650130428526247e-08
  outer loop
    vertex 12.567561599851167 15.579438510565252 32.185438167310274
    vertex 12.374704025277797 15.499554364245562 28.387156648399106
    vertex 12.567561533543655 15.57943855977476 28.387156646067304
  endloop
endfacet
facet normal 0.38268343236509095 -0.923879532511286 -1.8650130428526247e-08
  outer loop
    vertex 12.374704025277797 15.499554364245562 28.387156648399106
    vertex 12.567561599851167 15.579438510565252 32.185438167310274
    vertex 12.374704091585308 15.499554315036052 32.185438169642076
  endloop
endfacet
facet normal 0.6087614290087243 -0.7933533402912318 -2.0905766480773482e-08
  outer loop
    vertex 12.374704091585308 15.499554315036052 32.185438169642076
    vertex 12.209093528455696 15.37247696054136 28.387156649643828
    vertex 12.374704025277797 15.499554364245562 28.387156648399106
  endloop
endfacet
facet normal 0.6087614290087243 -0.7933533402912318 -2.0905766480773482e-08
  outer loop
    vertex 12.209093528455696 15.37247696054136 28.387156649643828
    vertex 12.374704091585308 15.499554315036052 32.185438169642076
    vertex 12.209093594763209 15.372476911331848 32.18543817088679
  endloop
endfacet
facet normal 0.7933533402912369 -0.6087614290087177 -2.173670909576858e-08
  outer loop
    vertex 12.082016124751496 15.206866463719258 28.387156649716644
    vertex 12.209093594763209 15.372476911331848 32.18543817088679
    vertex 12.082016191059008 15.206866414509747 32.18543817095961
  endloop
endfacet
facet normal 0.7933533402912369 -0.6087614290087177 -2.173670909576858e-08
  outer loop
    vertex 12.209093594763209 15.372476911331848 32.18543817088679
    vertex 12.082016124751496 15.206866463719258 28.387156649716644
    vertex 12.209093528455696 15.37247696054136 28.387156649643828
  endloop
endfacet
facet normal 0.923879532511286 -0.38268343236509117 -2.1086330907497296e-08
  outer loop
    vertex 12.002131929222296 15.014008955453399 28.387156648612596
    vertex 12.082016191059008 15.206866414509747 32.18543817095961
    vertex 12.002131995529808 15.01400890624389 32.18543816985555
  endloop
endfacet
facet normal 0.923879532511286 -0.38268343236509117 -2.1086330907497296e-08
  outer loop
    vertex 12.082016191059008 15.206866414509747 32.18543817095961
    vertex 12.002131929222296 15.014008955453399 28.387156648612596
    vertex 12.082016124751496 15.206866463719258 28.387156649716644
  endloop
endfacet
facet normal 0.9914448613738104 -0.13052619222005052 -1.899895411468948e-08
  outer loop
    vertex 11.974884917778537 14.807047356219998 28.38715664640691
    vertex 12.002131995529808 15.01400890624389 32.18543816985555
    vertex 11.97488498408605 14.807047307010485 32.18543816764986
  endloop
endfacet
facet normal 0.9914448613738104 -0.13052619222005052 -1.899895411468948e-08
  outer loop
    vertex 12.002131995529808 15.01400890624389 32.18543816985555
    vertex 11.974884917778537 14.807047356219998 28.38715664640691
    vertex 12.002131929222296 15.014008955453399 28.387156648612596
  endloop
endfacet
facet normal 0.9914448613738103 0.1305261922200524 -1.5616829996221795e-08
  outer loop
    vertex 12.002131929222296 14.600085756986598 28.387156643249916
    vertex 11.97488498408605 14.807047307010485 32.18543816764986
    vertex 12.002131995529808 14.600085707777085 32.18543816449288
  endloop
endfacet
facet normal 0.9914448613738103 0.1305261922200524 -1.5616829996221795e-08
  outer loop
    vertex 11.97488498408605 14.807047307010485 32.18543816764986
    vertex 12.002131929222296 14.600085756986598 28.387156643249916
    vertex 11.974884917778537 14.807047356219998 28.38715664640691
  endloop
endfacet
facet normal 0.923879532511286 0.3826834323650915 -1.1170444721543374e-08
  outer loop
    vertex 12.082016124751496 14.407228248720736 28.387156639356746
    vertex 12.002131995529808 14.600085707777085 32.18543816449288
    vertex 12.082016191059008 14.407228199511225 32.185438160599716
  endloop
endfacet
facet normal 0.923879532511286 0.3826834323650915 -1.1170444721543374e-08
  outer loop
    vertex 12.002131995529808 14.600085707777085 32.18543816449288
    vertex 12.082016124751496 14.407228248720736 28.387156639356746
    vertex 12.002131929222296 14.600085756986598 28.387156643249916
  endloop
endfacet
facet normal 0.793353340291232 0.6087614290087247 -5.9628120991244416e-09
  outer loop
    vertex 12.209093528455698 14.241617751898639 28.38715663499272
    vertex 12.082016191059008 14.407228199511225 32.185438160599716
    vertex 12.20909359476321 14.241617702689126 32.18543815623568
  endloop
endfacet
facet normal 0.793353340291232 0.6087614290087247 -5.9628120991244416e-09
  outer loop
    vertex 12.082016191059008 14.407228199511225 32.185438160599716
    vertex 12.209093528455698 14.241617751898639 28.38715663499272
    vertex 12.082016124751496 14.407228248720736 28.387156639356746
  endloop
endfacet
facet normal 0.6087614290087179 0.7933533402912373 -3.4882368616318905e-10
  outer loop
    vertex 12.209093528455698 14.241617751898639 28.38715663499272
    vertex 12.374704091585311 14.114540298984926 32.18543815169821
    vertex 12.374704025277797 14.114540348194438 28.387156630455237
  endloop
endfacet
facet normal 0.6087614290087179 0.7933533402912373 -3.4882368616318905e-10
  outer loop
    vertex 12.374704091585311 14.114540298984926 32.18543815169821
    vertex 12.209093528455698 14.241617751898639 28.38715663499272
    vertex 12.20909359476321 14.241617702689126 32.18543815623568
  endloop
endfacet
facet normal 0.3826834323650914 0.923879532511286 5.2889364845516144e-09
  outer loop
    vertex 12.374704025277797 14.114540348194438 28.387156630455237
    vertex 12.56756159985117 14.034656103455726 32.18543814729648
    vertex 12.567561533543659 14.034656152665239 28.387156626053518
  endloop
endfacet
facet normal 0.3826834323650914 0.923879532511286 5.2889364845516144e-09
  outer loop
    vertex 12.56756159985117 14.034656103455726 32.18543814729648
    vertex 12.374704025277797 14.114540348194438 28.387156630455237
    vertex 12.374704091585311 14.114540298984926 32.18543815169821
  endloop
endfacet
facet normal 0.13052619222005232 0.9914448613738103 1.056626437422516e-08
  outer loop
    vertex 12.567561533543659 14.034656152665239 28.387156626053518
    vertex 12.77452319908457 14.007409092011967 32.18543814333051
    vertex 12.774523132777059 14.007409141221478 28.387156622087538
  endloop
endfacet
facet normal 0.13052619222005232 0.9914448613738103 1.056626437422516e-08
  outer loop
    vertex 12.77452319908457 14.007409092011967 32.18543814333051
    vertex 12.567561533543659 14.034656152665239 28.387156626053518
    vertex 12.56756159985117 14.034656103455726 32.18543814729648
  endloop
endfacet
facet normal -0.13052619222005046 0.9914448613738105 1.5123518808372725e-08
  outer loop
    vertex 12.774523132777059 14.007409141221478 28.387156622087538
    vertex 12.981484798317972 14.034656103455726 32.18543814007053
    vertex 12.981484732010463 14.034656152665239 28.38715661882756
  endloop
endfacet
facet normal -0.13052619222005046 0.9914448613738105 1.5123518808372725e-08
  outer loop
    vertex 12.981484798317972 14.034656103455726 32.18543814007053
    vertex 12.774523132777059 14.007409141221478 28.387156622087538
    vertex 12.77452319908457 14.007409092011967 32.18543814333051
  endloop
endfacet
facet normal -0.38268343236509095 0.923879532511286 1.8650130428526247e-08
  outer loop
    vertex 12.981484732010463 14.034656152665239 28.38715661882756
    vertex 13.174342306583833 14.114540298984926 32.18543813773873
    vertex 13.174342240276319 14.114540348194438 28.38715661649576
  endloop
endfacet
facet normal -0.38268343236509095 0.923879532511286 1.8650130428526247e-08
  outer loop
    vertex 13.174342306583833 14.114540298984926 32.18543813773873
    vertex 12.981484732010463 14.034656152665239 28.38715661882756
    vertex 12.981484798317972 14.034656103455726 32.18543814007053
  endloop
endfacet
facet normal -0.6087614290087243 0.7933533402912318 2.0905766480773482e-08
  outer loop
    vertex 13.174342240276319 14.114540348194438 28.38715661649576
    vertex 13.33995280340593 14.24161770268913 32.185438136494
    vertex 13.339952737098418 14.241617751898643 28.387156615251044
  endloop
endfacet
facet normal -0.6087614290087243 0.7933533402912318 2.0905766480773482e-08
  outer loop
    vertex 13.33995280340593 14.24161770268913 32.185438136494
    vertex 13.174342240276319 14.114540348194438 28.38715661649576
    vertex 13.174342306583833 14.114540298984926 32.18543813773873
  endloop
endfacet
facet normal -0.7933533402912369 0.6087614290087177 2.173670909576858e-08
  outer loop
    vertex 13.467030207110133 14.407228199511227 32.18543813642118
    vertex 13.339952737098418 14.241617751898643 28.387156615251044
    vertex 13.33995280340593 14.24161770268913 32.185438136494
  endloop
endfacet
facet normal -0.7933533402912369 0.6087614290087177 2.173670909576858e-08
  outer loop
    vertex 13.339952737098418 14.241617751898643 28.387156615251044
    vertex 13.467030207110133 14.407228199511227 32.18543813642118
    vertex 13.467030140802619 14.40722824872074 28.387156615178224
  endloop
endfacet
facet normal -0.923879532511286 0.38268343236509117 2.1086330907497296e-08
  outer loop
    vertex 13.54691440263933 14.600085707777088 32.18543813752524
    vertex 13.467030140802619 14.40722824872074 28.387156615178224
    vertex 13.467030207110133 14.407228199511227 32.18543813642118
  endloop
endfacet
facet normal -0.923879532511286 0.38268343236509117 2.1086330907497296e-08
  outer loop
    vertex 13.467030140802619 14.40722824872074 28.387156615178224
    vertex 13.54691440263933 14.600085707777088 32.18543813752524
    vertex 13.546914336331819 14.6000857569866 28.387156616282276
  endloop
endfacet
facet normal -0.9914448613738104 0.13052619222005052 1.899895411468948e-08
  outer loop
    vertex 13.574161414083092 14.807047307010489 32.18543813973092
    vertex 13.546914336331819 14.6000857569866 28.387156616282276
    vertex 13.54691440263933 14.600085707777088 32.18543813752524
  endloop
endfacet
facet normal -0.9914448613738104 0.13052619222005052 1.899895411468948e-08
  outer loop
    vertex 13.546914336331819 14.6000857569866 28.387156616282276
    vertex 13.574161414083092 14.807047307010489 32.18543813973092
    vertex 13.574161347775577 14.80704735622 28.387156618487957
  endloop
endfacet
facet normal -0.9914448613738103 -0.1305261922200524 1.5616829996221795e-08
  outer loop
    vertex 13.54691440263933 15.01400890624389 32.18543814288792
    vertex 13.574161347775577 14.80704735622 28.387156618487957
    vertex 13.574161414083092 14.807047307010489 32.18543813973092
  endloop
endfacet
facet normal -0.9914448613738103 -0.1305261922200524 1.5616829996221795e-08
  outer loop
    vertex 13.574161347775577 14.80704735622 28.387156618487957
    vertex 13.54691440263933 15.01400890624389 32.18543814288792
    vertex 13.546914336331819 15.014008955453404 28.38715662164495
  endloop
endfacet
facet normal -0.923879532511286 -0.3826834323650915 1.1170444721543374e-08
  outer loop
    vertex 13.467030207110133 15.206866414509749 32.18543814678108
    vertex 13.546914336331819 15.014008955453404 28.38715662164495
    vertex 13.54691440263933 15.01400890624389 32.18543814288792
  endloop
endfacet
facet normal -0.923879532511286 -0.3826834323650915 1.1170444721543374e-08
  outer loop
    vertex 13.546914336331819 15.014008955453404 28.38715662164495
    vertex 13.467030207110133 15.206866414509749 32.18543814678108
    vertex 13.467030140802619 15.206866463719262 28.38715662553812
  endloop
endfacet
facet normal -0.793353340291232 -0.6087614290087247 5.9628120991244416e-09
  outer loop
    vertex 13.33995280340593 15.37247691133185 32.185438151145114
    vertex 13.467030140802619 15.206866463719262 28.38715662553812
    vertex 13.467030207110133 15.206866414509749 32.18543814678108
  endloop
endfacet
facet normal -0.793353340291232 -0.6087614290087247 5.9628120991244416e-09
  outer loop
    vertex 13.467030140802619 15.206866463719262 28.38715662553812
    vertex 13.33995280340593 15.37247691133185 32.185438151145114
    vertex 13.339952737098418 15.37247696054136 28.387156629902144
  endloop
endfacet
facet normal 0.07414414715875343 0.9972475346884047 -7.168038645650943e-16
  outer loop
    vertex 15.289449715134065 17.456124016249166 32.1854381536904
    vertex 16.811032656550378 17.34299616624363 27.9873375249482
    vertex 15.289449715134065 17.456124016249166 27.9873375249482
  endloop
endfacet
facet normal 0.07414414715875343 0.9972475346884047 -7.168038645650943e-16
  outer loop
    vertex 16.811032656550378 17.34299616624363 27.9873375249482
    vertex 15.289449715134065 17.456124016249166 32.1854381536904
    vertex 16.811032656550378 17.34299616624363 32.1854381536904
  endloop
endfacet
facet normal 0.9972475346884047 -0.07414414715875343 0.0
  outer loop
    vertex 15.29686077681989 17.555803671067906 27.9873375249482
    vertex 15.289449715134065 17.456124016249166 32.1854381536904
    vertex 15.289449715134065 17.456124016249166 27.9873375249482
  endloop
endfacet
facet normal 0.9972475346884047 -0.07414414715875343 0.0
  outer loop
    vertex 15.289449715134065 17.456124016249166 32.1854381536904
    vertex 15.29686077681989 17.555803671067906 27.9873375249482
    vertex 15.29686077681989 17.555803671067906 32.1854381536904
  endloop
endfacet
facet normal -0.016052241075835447 0.9998711544776373 0.0
  outer loop
    vertex 16.820048216411283 17.34273392291299 32.1854381536904
    vertex 17.373585853687757 17.351620587518045 27.9873375249482
    vertex 16.820048216411283 17.34273392291299 27.9873375249482
  endloop
endfacet
facet normal -0.016052241075835447 0.9998711544776373 0.0
  outer loop
    vertex 17.373585853687757 17.351620587518045 27.9873375249482
    vertex 16.820048216411283 17.34273392291299 32.1854381536904
    vertex 17.373585853687757 17.351620587518045 32.1854381536904
  endloop
endfacet
facet normal 0.029075560756024195 0.9995772165104219 0.0
  outer loop
    vertex 16.811032656550378 17.34299616624363 32.1854381536904
    vertex 16.820048216411283 17.34273392291299 27.9873375249482
    vertex 16.811032656550378 17.34299616624363 27.9873375249482
  endloop
endfacet
facet normal 0.029075560756024195 0.9995772165104219 0.0
  outer loop
    vertex 16.820048216411283 17.34273392291299 27.9873375249482
    vertex 16.811032656550378 17.34299616624363 32.1854381536904
    vertex 16.820048216411283 17.34273392291299 32.1854381536904
  endloop
endfacet
facet normal 0.0 0.9999999999999999 0.0
  outer loop
    vertex 17.373585853687757 17.351620587518045 27.9873375249482
    vertex 18.766571547314694 17.351620587518045 32.1854381536904
    vertex 18.76657154731468 17.351620587518045 27.987337524948195
  endloop
endfacet
facet normal 0.0 0.9999999999999999 0.0
  outer loop
    vertex 18.766571547314694 17.351620587518045 32.1854381536904
    vertex 17.373585853687757 17.351620587518045 27.9873375249482
    vertex 17.373585853687757 17.351620587518045 32.1854381536904
  endloop
endfacet
facet normal 0.0 0.9999999999999999 0.0
  outer loop
    vertex 17.37198135551268 17.351620587518045 23.98914644995562
    vertex 18.76657154731468 17.351620587518045 27.987337524948195
    vertex 18.766571547314676 17.351620587518045 23.989146449955612
  endloop
endfacet
facet normal 0.0 0.9999999999999999 0.0
  outer loop
    vertex 18.76657154731468 17.351620587518045 27.987337524948195
    vertex 17.37198135551268 17.351620587518045 23.98914644995562
    vertex 17.373585853687757 17.351620587518045 27.9873375249482
  endloop
endfacet
facet normal 0.9999677638209095 0.008026896036073972 -0.00020064654516153111
  outer loop
    vertex 17.37198135551268 17.451562485667424 23.98914644995562
    vertex 17.373585853687757 17.351620587518045 27.9873375249482
    vertex 17.37198135551268 17.351620587518045 23.98914644995562
  endloop
endfacet
facet normal 0.9999677638209095 0.008026896036073972 -0.00020064654516153111
  outer loop
    vertex 17.373585853687757 17.351620587518045 27.9873375249482
    vertex 17.37198135551268 17.451562485667424 23.98914644995562
    vertex 17.37198135551268 17.451562485667424 27.9873375249482
  endloop
endfacet
endsolid servo3
